<svg xmlns="http://www.w3.org/2000/svg" viewBox="0 0 1280 720" width="1280" height="720">
<defs>
<filter id="glow" x="-60%" y="-60%" width="220%" height="220%">
  <feGaussianBlur stdDeviation="1.6" result="b"/>
  <feMerge><feMergeNode in="b"/><feMergeNode in="SourceGraphic"/></feMerge>
</filter>
<filter id="glowBig" x="-80%" y="-80%" width="260%" height="260%">
  <feGaussianBlur stdDeviation="3.4" result="b"/>
  <feMerge><feMergeNode in="b"/><feMergeNode in="SourceGraphic"/></feMerge>
</filter>
<linearGradient id="skyB" x1="0" y1="0" x2="0" y2="1"><stop offset="0" stop-color="#0a0208" stop-opacity="1"/><stop offset="0.5" stop-color="#1d0518" stop-opacity="1"/><stop offset="1" stop-color="#2a0620" stop-opacity="1"/></linearGradient><radialGradient id="haloB" cx="0.5" cy="0.5" r="0.5"><stop offset="0" stop-color="#ff4d5e" stop-opacity="0.25"/><stop offset="0.6" stop-color="#a45cff" stop-opacity="0.12"/><stop offset="1" stop-color="#a45cff" stop-opacity="0"/></radialGradient><radialGradient id="vignette" cx="0.5" cy="0.5" r="0.5"><stop offset="0.45" stop-color="#000" stop-opacity="0"/><stop offset="1" stop-color="#000" stop-opacity="0.85"/></radialGradient>
</defs>
<rect x="0" y="0" width="1280" height="720" rx="0" fill="url(#skyB)" /><circle cx="640" cy="250" r="400" fill="url(#haloB)" /><rect x="-55.61" y="233.14" width="90.9" height="336.86" rx="3" fill="#12040c" /><rect x="18.39" y="271.14" width="8" height="10" rx="1" fill="#ff4d5e" opacity="0.67"/><rect x="-47.61" y="297.14" width="8" height="10" rx="1" fill="#ff4d5e" opacity="0.25"/><rect x="-25.61" y="297.14" width="8" height="10" rx="1" fill="#ff4d5e" opacity="0.55"/><rect x="-3.61" y="297.14" width="8" height="10" rx="1" fill="#ff4d5e" opacity="0.58"/><rect x="18.39" y="297.14" width="8" height="10" rx="1" fill="#ff4d5e" opacity="0.69"/><rect x="-3.61" y="323.14" width="8" height="10" rx="1" fill="#ff4d5e" opacity="0.44"/><rect x="-47.61" y="349.14" width="8" height="10" rx="1" fill="#ff4d5e" opacity="0.77"/><rect x="-25.61" y="375.14" width="8" height="10" rx="1" fill="#ff4d5e" opacity="0.77"/><rect x="-3.61" y="375.14" width="8" height="10" rx="1" fill="#ff4d5e" opacity="0.33"/><rect x="-47.61" y="427.14" width="8" height="10" rx="1" fill="#ff4d5e" opacity="0.84"/><rect x="-3.61" y="427.14" width="8" height="10" rx="1" fill="#ff4d5e" opacity="0.39"/><rect x="-25.61" y="453.14" width="8" height="10" rx="1" fill="#ff4d5e" opacity="0.35"/><rect x="-3.61" y="453.14" width="8" height="10" rx="1" fill="#ff4d5e" opacity="0.41"/><rect x="18.39" y="453.14" width="8" height="10" rx="1" fill="#ff4d5e" opacity="0.32"/><rect x="-47.61" y="479.14" width="8" height="10" rx="1" fill="#ff4d5e" opacity="0.37"/><rect x="-25.61" y="479.14" width="8" height="10" rx="1" fill="#ff4d5e" opacity="0.79"/><rect x="-3.61" y="479.14" width="8" height="10" rx="1" fill="#ff4d5e" opacity="0.74"/><rect x="18.39" y="479.14" width="8" height="10" rx="1" fill="#ff4d5e" opacity="0.43"/><rect x="-25.61" y="505.14" width="8" height="10" rx="1" fill="#ff4d5e" opacity="0.33"/><rect x="-3.61" y="505.14" width="8" height="10" rx="1" fill="#ff4d5e" opacity="0.62"/><rect x="-47.61" y="531.14" width="8" height="10" rx="1" fill="#ff4d5e" opacity="0.67"/><rect x="18.39" y="531.14" width="8" height="10" rx="1" fill="#ff4d5e" opacity="0.56"/><line x1="-10.16" y1="233.14" x2="-10.16" y2="211.14" stroke="#12040c" stroke-width="2" stroke-linecap="round" /><circle cx="-10.16" cy="209.14" r="3.5" fill="#ff4d5e" opacity="0.8"/><rect x="46.48" y="234.5" width="90.07" height="335.5" rx="3" fill="#12040c" /><rect x="54.48" y="246.5" width="8" height="10" rx="1" fill="#ff4d5e" opacity="0.56"/><rect x="76.48" y="246.5" width="8" height="10" rx="1" fill="#ff4d5e" opacity="0.34"/><rect x="98.48" y="246.5" width="8" height="10" rx="1" fill="#ff4d5e" opacity="0.5"/><rect x="54.48" y="272.5" width="8" height="10" rx="1" fill="#ff4d5e" opacity="0.28"/><rect x="76.48" y="272.5" width="8" height="10" rx="1" fill="#ff4d5e" opacity="0.76"/><rect x="120.48" y="324.5" width="8" height="10" rx="1" fill="#ff4d5e" opacity="0.5"/><rect x="98.48" y="350.5" width="8" height="10" rx="1" fill="#ff4d5e" opacity="0.82"/><rect x="120.48" y="350.5" width="8" height="10" rx="1" fill="#ff4d5e" opacity="0.67"/><rect x="98.48" y="376.5" width="8" height="10" rx="1" fill="#ff4d5e" opacity="0.45"/><rect x="76.48" y="402.5" width="8" height="10" rx="1" fill="#ff4d5e" opacity="0.34"/><rect x="98.48" y="402.5" width="8" height="10" rx="1" fill="#ff4d5e" opacity="0.44"/><rect x="98.48" y="428.5" width="8" height="10" rx="1" fill="#ff4d5e" opacity="0.37"/><rect x="76.48" y="454.5" width="8" height="10" rx="1" fill="#ff4d5e" opacity="0.62"/><rect x="76.48" y="480.5" width="8" height="10" rx="1" fill="#ff4d5e" opacity="0.68"/><rect x="54.48" y="532.5" width="8" height="10" rx="1" fill="#ff4d5e" opacity="0.47"/><rect x="76.48" y="532.5" width="8" height="10" rx="1" fill="#ff4d5e" opacity="0.41"/><rect x="98.48" y="532.5" width="8" height="10" rx="1" fill="#ff4d5e" opacity="0.48"/><rect x="146.87" y="244.02" width="68.46" height="325.98" rx="3" fill="#12040c" /><rect x="154.87" y="282.02" width="8" height="10" rx="1" fill="#ff4d5e" opacity="0.39"/><rect x="154.87" y="334.02" width="8" height="10" rx="1" fill="#ff4d5e" opacity="0.74"/><rect x="198.87" y="360.02" width="8" height="10" rx="1" fill="#ff4d5e" opacity="0.61"/><rect x="154.87" y="386.02" width="8" height="10" rx="1" fill="#ff4d5e" opacity="0.4"/><rect x="176.87" y="386.02" width="8" height="10" rx="1" fill="#ff4d5e" opacity="0.67"/><rect x="176.87" y="412.02" width="8" height="10" rx="1" fill="#ff4d5e" opacity="0.76"/><rect x="198.87" y="412.02" width="8" height="10" rx="1" fill="#ff4d5e" opacity="0.83"/><rect x="154.87" y="464.02" width="8" height="10" rx="1" fill="#ff4d5e" opacity="0.51"/><rect x="198.87" y="464.02" width="8" height="10" rx="1" fill="#ff4d5e" opacity="0.67"/><rect x="198.87" y="490.02" width="8" height="10" rx="1" fill="#ff4d5e" opacity="0.3"/><rect x="176.87" y="516.02" width="8" height="10" rx="1" fill="#ff4d5e" opacity="0.74"/><rect x="198.87" y="516.02" width="8" height="10" rx="1" fill="#ff4d5e" opacity="0.6"/><rect x="154.87" y="542.02" width="8" height="10" rx="1" fill="#ff4d5e" opacity="0.34"/><rect x="176.87" y="542.02" width="8" height="10" rx="1" fill="#ff4d5e" opacity="0.27"/><rect x="198.87" y="542.02" width="8" height="10" rx="1" fill="#ff4d5e" opacity="0.62"/><line x1="181.11" y1="244.02" x2="181.11" y2="222.02" stroke="#12040c" stroke-width="2" stroke-linecap="round" /><circle cx="181.11" cy="220.02" r="3.5" fill="#ff4d5e" opacity="0.8"/><rect x="254.39" y="223.89" width="41.72" height="346.11" rx="3" fill="#12040c" /><rect x="262.39" y="235.89" width="8" height="10" rx="1" fill="#ff4d5e" opacity="0.28"/><rect x="262.39" y="261.89" width="8" height="10" rx="1" fill="#ff4d5e" opacity="0.44"/><rect x="262.39" y="391.89" width="8" height="10" rx="1" fill="#ff4d5e" opacity="0.76"/><rect x="262.39" y="417.89" width="8" height="10" rx="1" fill="#ff4d5e" opacity="0.62"/><rect x="262.39" y="443.89" width="8" height="10" rx="1" fill="#ff4d5e" opacity="0.41"/><line x1="275.25" y1="223.89" x2="275.25" y2="201.89" stroke="#12040c" stroke-width="2" stroke-linecap="round" /><circle cx="275.25" cy="199.89" r="3.5" fill="#ff4d5e" opacity="0.8"/><rect x="354.51" y="333.48" width="121.94" height="236.52" rx="3" fill="#12040c" /><rect x="384.51" y="345.48" width="8" height="10" rx="1" fill="#ff4d5e" opacity="0.4"/><rect x="428.51" y="345.48" width="8" height="10" rx="1" fill="#ff4d5e" opacity="0.77"/><rect x="362.51" y="371.48" width="8" height="10" rx="1" fill="#ff4d5e" opacity="0.51"/><rect x="384.51" y="371.48" width="8" height="10" rx="1" fill="#ff4d5e" opacity="0.48"/><rect x="406.51" y="371.48" width="8" height="10" rx="1" fill="#ff4d5e" opacity="0.45"/><rect x="450.51" y="423.48" width="8" height="10" rx="1" fill="#ff4d5e" opacity="0.64"/><rect x="406.51" y="449.48" width="8" height="10" rx="1" fill="#ff4d5e" opacity="0.53"/><rect x="450.51" y="449.48" width="8" height="10" rx="1" fill="#ff4d5e" opacity="0.73"/><rect x="428.51" y="475.48" width="8" height="10" rx="1" fill="#ff4d5e" opacity="0.76"/><rect x="450.51" y="475.48" width="8" height="10" rx="1" fill="#ff4d5e" opacity="0.29"/><rect x="362.51" y="501.48" width="8" height="10" rx="1" fill="#ff4d5e" opacity="0.74"/><rect x="384.51" y="501.48" width="8" height="10" rx="1" fill="#ff4d5e" opacity="0.79"/><rect x="450.51" y="501.48" width="8" height="10" rx="1" fill="#ff4d5e" opacity="0.71"/><rect x="384.51" y="527.48" width="8" height="10" rx="1" fill="#ff4d5e" opacity="0.38"/><rect x="450.51" y="527.48" width="8" height="10" rx="1" fill="#ff4d5e" opacity="0.48"/><rect x="453.25" y="463.42" width="65.19" height="106.58" rx="3" fill="#12040c" /><rect x="461.25" y="475.42" width="8" height="10" rx="1" fill="#ff4d5e" opacity="0.49"/><rect x="461.25" y="501.42" width="8" height="10" rx="1" fill="#ff4d5e" opacity="0.77"/><line x1="485.85" y1="463.42" x2="485.85" y2="441.42" stroke="#12040c" stroke-width="2" stroke-linecap="round" /><circle cx="485.85" cy="439.42" r="3.5" fill="#ff4d5e" opacity="0.8"/><rect x="542.68" y="291.03" width="77.17" height="278.97" rx="3" fill="#12040c" /><rect x="594.68" y="303.03" width="8" height="10" rx="1" fill="#ff4d5e" opacity="0.59"/><rect x="550.68" y="329.03" width="8" height="10" rx="1" fill="#ff4d5e" opacity="0.62"/><rect x="594.68" y="329.03" width="8" height="10" rx="1" fill="#ff4d5e" opacity="0.4"/><rect x="550.68" y="355.03" width="8" height="10" rx="1" fill="#ff4d5e" opacity="0.51"/><rect x="550.68" y="381.03" width="8" height="10" rx="1" fill="#ff4d5e" opacity="0.49"/><rect x="572.68" y="381.03" width="8" height="10" rx="1" fill="#ff4d5e" opacity="0.74"/><rect x="594.68" y="381.03" width="8" height="10" rx="1" fill="#ff4d5e" opacity="0.78"/><rect x="594.68" y="407.03" width="8" height="10" rx="1" fill="#ff4d5e" opacity="0.65"/><rect x="572.68" y="433.03" width="8" height="10" rx="1" fill="#ff4d5e" opacity="0.51"/><rect x="594.68" y="433.03" width="8" height="10" rx="1" fill="#ff4d5e" opacity="0.45"/><rect x="550.68" y="459.03" width="8" height="10" rx="1" fill="#ff4d5e" opacity="0.35"/><rect x="594.68" y="459.03" width="8" height="10" rx="1" fill="#ff4d5e" opacity="0.48"/><rect x="550.68" y="485.03" width="8" height="10" rx="1" fill="#ff4d5e" opacity="0.81"/><rect x="550.68" y="511.03" width="8" height="10" rx="1" fill="#ff4d5e" opacity="0.51"/><rect x="594.68" y="511.03" width="8" height="10" rx="1" fill="#ff4d5e" opacity="0.6"/><rect x="594.68" y="537.03" width="8" height="10" rx="1" fill="#ff4d5e" opacity="0.67"/><rect x="659.07" y="326.04" width="88.32" height="243.96" rx="3" fill="#12040c" /><rect x="667.07" y="338.04" width="8" height="10" rx="1" fill="#ff4d5e" opacity="0.78"/><rect x="733.07" y="338.04" width="8" height="10" rx="1" fill="#ff4d5e" opacity="0.79"/><rect x="667.07" y="364.04" width="8" height="10" rx="1" fill="#ff4d5e" opacity="0.52"/><rect x="689.07" y="364.04" width="8" height="10" rx="1" fill="#ff4d5e" opacity="0.71"/><rect x="667.07" y="390.04" width="8" height="10" rx="1" fill="#ff4d5e" opacity="0.68"/><rect x="711.07" y="390.04" width="8" height="10" rx="1" fill="#ff4d5e" opacity="0.35"/><rect x="689.07" y="416.04" width="8" height="10" rx="1" fill="#ff4d5e" opacity="0.6"/><rect x="689.07" y="442.04" width="8" height="10" rx="1" fill="#ff4d5e" opacity="0.71"/><rect x="711.07" y="442.04" width="8" height="10" rx="1" fill="#ff4d5e" opacity="0.62"/><rect x="733.07" y="442.04" width="8" height="10" rx="1" fill="#ff4d5e" opacity="0.26"/><rect x="667.07" y="468.04" width="8" height="10" rx="1" fill="#ff4d5e" opacity="0.5"/><rect x="689.07" y="468.04" width="8" height="10" rx="1" fill="#ff4d5e" opacity="0.65"/><rect x="733.07" y="468.04" width="8" height="10" rx="1" fill="#ff4d5e" opacity="0.33"/><rect x="743.16" y="318.45" width="61.74" height="251.55" rx="3" fill="#12040c" /><rect x="751.16" y="330.45" width="8" height="10" rx="1" fill="#ff4d5e" opacity="0.3"/><rect x="773.16" y="330.45" width="8" height="10" rx="1" fill="#ff4d5e" opacity="0.5"/><rect x="773.16" y="356.45" width="8" height="10" rx="1" fill="#ff4d5e" opacity="0.5"/><rect x="751.16" y="408.45" width="8" height="10" rx="1" fill="#ff4d5e" opacity="0.6"/><rect x="751.16" y="486.45" width="8" height="10" rx="1" fill="#ff4d5e" opacity="0.68"/><rect x="751.16" y="512.45" width="8" height="10" rx="1" fill="#ff4d5e" opacity="0.3"/><rect x="751.16" y="538.45" width="8" height="10" rx="1" fill="#ff4d5e" opacity="0.44"/><rect x="843.5" y="443.37" width="41.14" height="126.63" rx="3" fill="#12040c" /><rect x="851.5" y="481.37" width="8" height="10" rx="1" fill="#ff4d5e" opacity="0.68"/><line x1="864.07" y1="443.37" x2="864.07" y2="421.37" stroke="#12040c" stroke-width="2" stroke-linecap="round" /><circle cx="864.07" cy="419.37" r="3.5" fill="#ff4d5e" opacity="0.8"/><rect x="947.55" y="459.52" width="72.93" height="110.48" rx="3" fill="#12040c" /><rect x="955.55" y="471.52" width="8" height="10" rx="1" fill="#ff4d5e" opacity="0.62"/><rect x="955.55" y="497.52" width="8" height="10" rx="1" fill="#ff4d5e" opacity="0.54"/><rect x="977.55" y="497.52" width="8" height="10" rx="1" fill="#ff4d5e" opacity="0.39"/><line x1="984.01" y1="459.52" x2="984.01" y2="437.52" stroke="#12040c" stroke-width="2" stroke-linecap="round" /><circle cx="984.01" cy="435.52" r="3.5" fill="#ff4d5e" opacity="0.8"/><rect x="1042.79" y="491.45" width="65.07" height="78.55" rx="3" fill="#12040c" /><rect x="1050.79" y="529.45" width="8" height="10" rx="1" fill="#ff4d5e" opacity="0.28"/><rect x="1072.79" y="529.45" width="8" height="10" rx="1" fill="#ff4d5e" opacity="0.36"/><rect x="1154.51" y="390.61" width="77.9" height="179.39" rx="3" fill="#12040c" /><rect x="1162.51" y="402.61" width="8" height="10" rx="1" fill="#ff4d5e" opacity="0.47"/><rect x="1162.51" y="428.61" width="8" height="10" rx="1" fill="#ff4d5e" opacity="0.39"/><rect x="1206.51" y="428.61" width="8" height="10" rx="1" fill="#ff4d5e" opacity="0.26"/><rect x="1206.51" y="480.61" width="8" height="10" rx="1" fill="#ff4d5e" opacity="0.74"/><rect x="1162.51" y="506.61" width="8" height="10" rx="1" fill="#ff4d5e" opacity="0.29"/><rect x="1184.51" y="532.61" width="8" height="10" rx="1" fill="#ff4d5e" opacity="0.39"/><rect x="1251.84" y="284.49" width="83.21" height="285.51" rx="3" fill="#12040c" /><rect x="1259.84" y="348.49" width="8" height="10" rx="1" fill="#ff4d5e" opacity="0.28"/><rect x="1303.84" y="348.49" width="8" height="10" rx="1" fill="#ff4d5e" opacity="0.85"/><rect x="1259.84" y="400.49" width="8" height="10" rx="1" fill="#ff4d5e" opacity="0.82"/><rect x="1303.84" y="400.49" width="8" height="10" rx="1" fill="#ff4d5e" opacity="0.31"/><rect x="1259.84" y="426.49" width="8" height="10" rx="1" fill="#ff4d5e" opacity="0.36"/><rect x="1281.84" y="426.49" width="8" height="10" rx="1" fill="#ff4d5e" opacity="0.53"/><rect x="1303.84" y="478.49" width="8" height="10" rx="1" fill="#ff4d5e" opacity="0.69"/><rect x="1259.84" y="504.49" width="8" height="10" rx="1" fill="#ff4d5e" opacity="0.81"/><rect x="1281.84" y="504.49" width="8" height="10" rx="1" fill="#ff4d5e" opacity="0.61"/><rect x="1281.84" y="530.49" width="8" height="10" rx="1" fill="#ff4d5e" opacity="0.57"/><rect x="1303.84" y="530.49" width="8" height="10" rx="1" fill="#ff4d5e" opacity="0.62"/><g stroke="#ff4d5e" opacity="0.28" fill="none"><line x1="528" y1="560" x2="-648" y2="720" stroke-width="1.2"/><line x1="536" y1="560" x2="-556" y2="720" stroke-width="1.2"/><line x1="544" y1="560" x2="-464" y2="720" stroke-width="1.2"/><line x1="552" y1="560" x2="-372" y2="720" stroke-width="1.2"/><line x1="560" y1="560" x2="-280" y2="720" stroke-width="1.2"/><line x1="568" y1="560" x2="-188" y2="720" stroke-width="1.2"/><line x1="576" y1="560" x2="-96" y2="720" stroke-width="1.2"/><line x1="584" y1="560" x2="-4" y2="720" stroke-width="1.2"/><line x1="592" y1="560" x2="88" y2="720" stroke-width="1.2"/><line x1="600" y1="560" x2="180" y2="720" stroke-width="1.2"/><line x1="608" y1="560" x2="272" y2="720" stroke-width="1.2"/><line x1="616" y1="560" x2="364" y2="720" stroke-width="1.2"/><line x1="624" y1="560" x2="456" y2="720" stroke-width="1.2"/><line x1="632" y1="560" x2="548" y2="720" stroke-width="1.2"/><line x1="640" y1="560" x2="640" y2="720" stroke-width="1.2"/><line x1="648" y1="560" x2="732" y2="720" stroke-width="1.2"/><line x1="656" y1="560" x2="824" y2="720" stroke-width="1.2"/><line x1="664" y1="560" x2="916" y2="720" stroke-width="1.2"/><line x1="672" y1="560" x2="1008" y2="720" stroke-width="1.2"/><line x1="680" y1="560" x2="1100" y2="720" stroke-width="1.2"/><line x1="688" y1="560" x2="1192" y2="720" stroke-width="1.2"/><line x1="696" y1="560" x2="1284" y2="720" stroke-width="1.2"/><line x1="704" y1="560" x2="1376" y2="720" stroke-width="1.2"/><line x1="712" y1="560" x2="1468" y2="720" stroke-width="1.2"/><line x1="720" y1="560" x2="1560" y2="720" stroke-width="1.2"/><line x1="728" y1="560" x2="1652" y2="720" stroke-width="1.2"/><line x1="736" y1="560" x2="1744" y2="720" stroke-width="1.2"/><line x1="744" y1="560" x2="1836" y2="720" stroke-width="1.2"/><line x1="752" y1="560" x2="1928" y2="720" stroke-width="1.2"/><line x1="0" y1="560.48" x2="1280" y2="560.48" stroke-width="0.71"/><line x1="0" y1="562.21" x2="1280" y2="562.21" stroke-width="0.83"/><line x1="0" y1="565.4" x2="1280" y2="565.4" stroke-width="0.94"/><line x1="0" y1="570.17" x2="1280" y2="570.17" stroke-width="1.06"/><line x1="0" y1="576.61" x2="1280" y2="576.61" stroke-width="1.17"/><line x1="0" y1="584.81" x2="1280" y2="584.81" stroke-width="1.29"/><line x1="0" y1="594.82" x2="1280" y2="594.82" stroke-width="1.4"/><line x1="0" y1="606.71" x2="1280" y2="606.71" stroke-width="1.51"/><line x1="0" y1="620.53" x2="1280" y2="620.53" stroke-width="1.63"/><line x1="0" y1="636.32" x2="1280" y2="636.32" stroke-width="1.74"/><line x1="0" y1="654.12" x2="1280" y2="654.12" stroke-width="1.86"/><line x1="0" y1="673.98" x2="1280" y2="673.98" stroke-width="1.97"/><line x1="0" y1="695.93" x2="1280" y2="695.93" stroke-width="2.09"/><line x1="0" y1="720" x2="1280" y2="720" stroke-width="2.2"/></g><g stroke="#ff4d5e" fill="none" opacity="0.35"><path d="M275.78 671.84 L327.12 681.39 L289.88 682.93 L352.41 700.34 L368.45 714.16 L375.66 723.72" stroke-width="2.14"/><path d="M1160.51 716.37 L1113.86 746.52 L1050.5 776.54 L1072.35 799.08 L1017.46 812.65 L983.09 850.17" stroke-width="1.92"/><path d="M379.74 521.6 L426.68 556.75 L459.03 572.87 L413.59 597.76 L459.09 634.8 L478.2 652.08" stroke-width="2"/><path d="M958.77 538.57 L960.19 555.41 L931.31 575.16 L891.89 593.58 L929.54 629.97 L912.74 658.83" stroke-width="2.69"/><path d="M235.52 542.08 L262.68 566.57 L215.4 598.79 L243.42 616.68 L204.31 634.76 L251.98 638.82" stroke-width="0.94"/><path d="M582.56 533.59 L540.12 548.73 L586.27 574.76 L601.95 584.92 L587.46 593.48 L586.57 602.69" stroke-width="1.44"/><path d="M391.7 483.02 L425.93 521.16 L426.56 559.1 L464.52 587.77 L527.69 609.76 L463.17 617.03" stroke-width="0.96"/><path d="M294.87 432.03 L276.76 471.5 L339.97 485.51 L355.75 520.63 L390.79 523.35 L327.72 531.74" stroke-width="2.26"/><path d="M285.42 516.46 L334.31 556.04 L379.08 583.81 L382.35 589.23 L322.93 592.52 L273.45 609.49" stroke-width="1.25"/><path d="M811.49 461 L842.91 484.87 L905.23 516.79 L847.55 520.1 L812.27 539.23 L824.37 539.59" stroke-width="1.5"/><path d="M307.78 563.11 L359.59 589.02 L340.67 611.38 L360.18 646.66 L373.12 685.85 L347.97 695.47" stroke-width="2.5"/><path d="M674.69 440.24 L610.2 461.86 L607.47 475.46 L595.51 495.82 L630.18 504.78 L663.6 518.6" stroke-width="2.1"/><path d="M1090.77 695.79 L1118.59 714.92 L1158.18 745.55 L1156.28 750.07 L1211.25 766.37 L1211.25 798.03" stroke-width="2.04"/><path d="M61.22 472.38 L12.37 495.24 L-47.86 519.45 L-3.33 549.64 L14.64 573.74 L0.39 587.79" stroke-width="1.03"/><path d="M1258.48 540.97 L1256.87 577.5 L1210.26 578.6 L1231.17 599.1 L1248.31 616.94 L1186.73 644.62" stroke-width="1.73"/><path d="M156.46 627.71 L96.83 639.21 L37.95 642.03 L48.76 644.15 L4.94 665.63 L-58.7 699.16" stroke-width="2.37"/></g><g opacity="0.2" font-family="'Courier New',monospace" font-size="16" fill="#ff4d5e"><text x="15.25" y="114.92" opacity="1">1</text><text x="15.25" y="133.92" opacity="0.93">0</text><text x="15.25" y="152.92" opacity="0.86">0</text><text x="15.25" y="171.92" opacity="0.79">0</text><text x="15.25" y="190.92" opacity="0.71">1</text><text x="15.25" y="209.92" opacity="0.64">0</text><text x="15.25" y="228.92" opacity="0.57">0</text><text x="15.25" y="247.92" opacity="0.5">1</text><text x="15.25" y="266.92" opacity="0.43">1</text><text x="15.25" y="285.92" opacity="0.36">1</text><text x="15.25" y="304.92" opacity="0.29">1</text><text x="15.25" y="323.92" opacity="0.21">1</text><text x="15.25" y="342.92" opacity="0.14">1</text><text x="15.25" y="361.92" opacity="0.07">1</text><text x="67.38" y="481.96" opacity="1">1</text><text x="67.38" y="500.96" opacity="0.92">0</text><text x="67.38" y="519.96" opacity="0.85">1</text><text x="67.38" y="538.96" opacity="0.77">1</text><text x="67.38" y="557.96" opacity="0.69">0</text><text x="67.38" y="576.96" opacity="0.62">0</text><text x="67.38" y="595.96" opacity="0.54">0</text><text x="67.38" y="614.96" opacity="0.46">1</text><text x="67.38" y="633.96" opacity="0.38">0</text><text x="67.38" y="652.96" opacity="0.31">1</text><text x="67.38" y="671.96" opacity="0.23">0</text><text x="67.38" y="690.96" opacity="0.15">0</text><text x="67.38" y="709.96" opacity="0.08">0</text><text x="121.41" y="310.21" opacity="1">1</text><text x="121.41" y="329.21" opacity="0.89">0</text><text x="121.41" y="348.21" opacity="0.78">0</text><text x="121.41" y="367.21" opacity="0.67">1</text><text x="121.41" y="386.21" opacity="0.56">0</text><text x="121.41" y="405.21" opacity="0.44">1</text><text x="121.41" y="424.21" opacity="0.33">1</text><text x="121.41" y="443.21" opacity="0.22">0</text><text x="121.41" y="462.21" opacity="0.11">1</text><text x="184.09" y="77.02" opacity="1">1</text><text x="184.09" y="96.02" opacity="0.94">0</text><text x="184.09" y="115.02" opacity="0.89">1</text><text x="184.09" y="134.02" opacity="0.83">0</text><text x="184.09" y="153.02" opacity="0.78">0</text><text x="184.09" y="172.02" opacity="0.72">1</text><text x="184.09" y="191.02" opacity="0.67">1</text><text x="184.09" y="210.02" opacity="0.61">0</text><text x="184.09" y="229.02" opacity="0.56">0</text><text x="184.09" y="248.02" opacity="0.5">0</text><text x="184.09" y="267.02" opacity="0.44">0</text><text x="184.09" y="286.02" opacity="0.39">1</text><text x="184.09" y="305.02" opacity="0.33">0</text><text x="184.09" y="324.02" opacity="0.28">1</text><text x="184.09" y="343.02" opacity="0.22">0</text><text x="184.09" y="362.02" opacity="0.17">1</text><text x="184.09" y="381.02" opacity="0.11">0</text><text x="184.09" y="400.02" opacity="0.06">0</text><text x="244.59" y="132.06" opacity="1">0</text><text x="244.59" y="151.06" opacity="0.91">0</text><text x="244.59" y="170.06" opacity="0.82">1</text><text x="244.59" y="189.06" opacity="0.73">0</text><text x="244.59" y="208.06" opacity="0.64">1</text><text x="244.59" y="227.06" opacity="0.55">1</text><text x="244.59" y="246.06" opacity="0.45">1</text><text x="244.59" y="265.06" opacity="0.36">1</text><text x="244.59" y="284.06" opacity="0.27">0</text><text x="244.59" y="303.06" opacity="0.18">1</text><text x="244.59" y="322.06" opacity="0.09">1</text><text x="300.25" y="566.46" opacity="1">1</text><text x="300.25" y="585.46" opacity="0.92">0</text><text x="300.25" y="604.46" opacity="0.83">1</text><text x="300.25" y="623.46" opacity="0.75">0</text><text x="300.25" y="642.46" opacity="0.67">0</text><text x="300.25" y="661.46" opacity="0.58">0</text><text x="300.25" y="680.46" opacity="0.5">1</text><text x="300.25" y="699.46" opacity="0.42">0</text><text x="300.25" y="718.46" opacity="0.33">0</text><text x="300.25" y="17.46" opacity="0.25">0</text><text x="300.25" y="36.46" opacity="0.17">0</text><text x="300.25" y="55.46" opacity="0.08">1</text><text x="366.66" y="563.25" opacity="1">0</text><text x="366.66" y="582.25" opacity="0.95">0</text><text x="366.66" y="601.25" opacity="0.89">0</text><text x="366.66" y="620.25" opacity="0.84">1</text><text x="366.66" y="639.25" opacity="0.79">1</text><text x="366.66" y="658.25" opacity="0.74">0</text><text x="366.66" y="677.25" opacity="0.68">0</text><text x="366.66" y="696.25" opacity="0.63">1</text><text x="366.66" y="715.25" opacity="0.58">1</text><text x="366.66" y="14.25" opacity="0.53">1</text><text x="366.66" y="33.25" opacity="0.47">1</text><text x="366.66" y="52.25" opacity="0.42">1</text><text x="366.66" y="71.25" opacity="0.37">1</text><text x="366.66" y="90.25" opacity="0.32">0</text><text x="366.66" y="109.25" opacity="0.26">0</text><text x="366.66" y="128.25" opacity="0.21">1</text><text x="366.66" y="147.25" opacity="0.16">1</text><text x="366.66" y="166.25" opacity="0.11">1</text><text x="366.66" y="185.25" opacity="0.05">1</text><text x="409.95" y="567.88" opacity="1">0</text><text x="409.95" y="586.88" opacity="0.94">1</text><text x="409.95" y="605.88" opacity="0.88">1</text><text x="409.95" y="624.88" opacity="0.81">0</text><text x="409.95" y="643.88" opacity="0.75">1</text><text x="409.95" y="662.88" opacity="0.69">0</text><text x="409.95" y="681.88" opacity="0.63">0</text><text x="409.95" y="700.88" opacity="0.56">1</text><text x="409.95" y="719.88" opacity="0.5">1</text><text x="409.95" y="18.88" opacity="0.44">0</text><text x="409.95" y="37.88" opacity="0.38">1</text><text x="409.95" y="56.88" opacity="0.31">0</text><text x="409.95" y="75.88" opacity="0.25">1</text><text x="409.95" y="94.88" opacity="0.19">1</text><text x="409.95" y="113.88" opacity="0.13">1</text><text x="409.95" y="132.88" opacity="0.06">1</text><text x="467.18" y="11.1" opacity="1">1</text><text x="467.18" y="30.1" opacity="0.86">1</text><text x="467.18" y="49.1" opacity="0.71">1</text><text x="467.18" y="68.1" opacity="0.57">0</text><text x="467.18" y="87.1" opacity="0.43">1</text><text x="467.18" y="106.1" opacity="0.29">0</text><text x="467.18" y="125.1" opacity="0.14">1</text><text x="535.09" y="27.89" opacity="1">1</text><text x="535.09" y="46.89" opacity="0.86">1</text><text x="535.09" y="65.89" opacity="0.71">0</text><text x="535.09" y="84.89" opacity="0.57">1</text><text x="535.09" y="103.89" opacity="0.43">0</text><text x="535.09" y="122.89" opacity="0.29">1</text><text x="535.09" y="141.89" opacity="0.14">1</text><text x="596.17" y="475.56" opacity="1">0</text><text x="596.17" y="494.56" opacity="0.83">1</text><text x="596.17" y="513.56" opacity="0.67">0</text><text x="596.17" y="532.56" opacity="0.5">1</text><text x="596.17" y="551.56" opacity="0.33">1</text><text x="596.17" y="570.56" opacity="0.17">1</text><text x="650.86" y="645.2" opacity="1">1</text><text x="650.86" y="664.2" opacity="0.94">1</text><text x="650.86" y="683.2" opacity="0.88">0</text><text x="650.86" y="702.2" opacity="0.82">1</text><text x="650.86" y="1.2" opacity="0.76">0</text><text x="650.86" y="20.2" opacity="0.71">1</text><text x="650.86" y="39.2" opacity="0.65">0</text><text x="650.86" y="58.2" opacity="0.59">1</text><text x="650.86" y="77.2" opacity="0.53">1</text><text x="650.86" y="96.2" opacity="0.47">1</text><text x="650.86" y="115.2" opacity="0.41">1</text><text x="650.86" y="134.2" opacity="0.35">1</text><text x="650.86" y="153.2" opacity="0.29">1</text><text x="650.86" y="172.2" opacity="0.24">0</text><text x="650.86" y="191.2" opacity="0.18">0</text><text x="650.86" y="210.2" opacity="0.12">0</text><text x="650.86" y="229.2" opacity="0.06">1</text><text x="717.02" y="387.78" opacity="1">0</text><text x="717.02" y="406.78" opacity="0.9">1</text><text x="717.02" y="425.78" opacity="0.8">1</text><text x="717.02" y="444.78" opacity="0.7">1</text><text x="717.02" y="463.78" opacity="0.6">1</text><text x="717.02" y="482.78" opacity="0.5">0</text><text x="717.02" y="501.78" opacity="0.4">0</text><text x="717.02" y="520.78" opacity="0.3">0</text><text x="717.02" y="539.78" opacity="0.2">0</text><text x="717.02" y="558.78" opacity="0.1">1</text><text x="760.39" y="642.24" opacity="1">0</text><text x="760.39" y="661.24" opacity="0.92">1</text><text x="760.39" y="680.24" opacity="0.83">1</text><text x="760.39" y="699.24" opacity="0.75">1</text><text x="760.39" y="718.24" opacity="0.67">1</text><text x="760.39" y="17.24" opacity="0.58">1</text><text x="760.39" y="36.24" opacity="0.5">1</text><text x="760.39" y="55.24" opacity="0.42">1</text><text x="760.39" y="74.24" opacity="0.33">0</text><text x="760.39" y="93.24" opacity="0.25">0</text><text x="760.39" y="112.24" opacity="0.17">1</text><text x="760.39" y="131.24" opacity="0.08">0</text><text x="832.23" y="231.56" opacity="1">1</text><text x="832.23" y="250.56" opacity="0.93">0</text><text x="832.23" y="269.56" opacity="0.87">0</text><text x="832.23" y="288.56" opacity="0.8">0</text><text x="832.23" y="307.56" opacity="0.73">0</text><text x="832.23" y="326.56" opacity="0.67">0</text><text x="832.23" y="345.56" opacity="0.6">1</text><text x="832.23" y="364.56" opacity="0.53">0</text><text x="832.23" y="383.56" opacity="0.47">0</text><text x="832.23" y="402.56" opacity="0.4">0</text><text x="832.23" y="421.56" opacity="0.33">1</text><text x="832.23" y="440.56" opacity="0.27">1</text><text x="832.23" y="459.56" opacity="0.2">1</text><text x="832.23" y="478.56" opacity="0.13">1</text><text x="832.23" y="497.56" opacity="0.07">1</text><text x="890.49" y="117.59" opacity="1">1</text><text x="890.49" y="136.59" opacity="0.92">1</text><text x="890.49" y="155.59" opacity="0.83">1</text><text x="890.49" y="174.59" opacity="0.75">1</text><text x="890.49" y="193.59" opacity="0.67">1</text><text x="890.49" y="212.59" opacity="0.58">0</text><text x="890.49" y="231.59" opacity="0.5">0</text><text x="890.49" y="250.59" opacity="0.42">0</text><text x="890.49" y="269.59" opacity="0.33">0</text><text x="890.49" y="288.59" opacity="0.25">1</text><text x="890.49" y="307.59" opacity="0.17">0</text><text x="890.49" y="326.59" opacity="0.08">0</text><text x="941.84" y="536.85" opacity="1">0</text><text x="941.84" y="555.85" opacity="0.93">1</text><text x="941.84" y="574.85" opacity="0.86">0</text><text x="941.84" y="593.85" opacity="0.79">0</text><text x="941.84" y="612.85" opacity="0.71">1</text><text x="941.84" y="631.85" opacity="0.64">0</text><text x="941.84" y="650.85" opacity="0.57">0</text><text x="941.84" y="669.85" opacity="0.5">0</text><text x="941.84" y="688.85" opacity="0.43">1</text><text x="941.84" y="707.85" opacity="0.36">0</text><text x="941.84" y="6.85" opacity="0.29">1</text><text x="941.84" y="25.85" opacity="0.21">1</text><text x="941.84" y="44.85" opacity="0.14">1</text><text x="941.84" y="63.85" opacity="0.07">1</text><text x="1000.57" y="394.73" opacity="1">1</text><text x="1000.57" y="413.73" opacity="0.88">1</text><text x="1000.57" y="432.73" opacity="0.75">0</text><text x="1000.57" y="451.73" opacity="0.63">0</text><text x="1000.57" y="470.73" opacity="0.5">0</text><text x="1000.57" y="489.73" opacity="0.38">0</text><text x="1000.57" y="508.73" opacity="0.25">0</text><text x="1000.57" y="527.73" opacity="0.13">1</text><text x="1056.26" y="361.83" opacity="1">1</text><text x="1056.26" y="380.83" opacity="0.94">1</text><text x="1056.26" y="399.83" opacity="0.88">0</text><text x="1056.26" y="418.83" opacity="0.82">0</text><text x="1056.26" y="437.83" opacity="0.76">0</text><text x="1056.26" y="456.83" opacity="0.71">1</text><text x="1056.26" y="475.83" opacity="0.65">1</text><text x="1056.26" y="494.83" opacity="0.59">1</text><text x="1056.26" y="513.83" opacity="0.53">0</text><text x="1056.26" y="532.83" opacity="0.47">1</text><text x="1056.26" y="551.83" opacity="0.41">1</text><text x="1056.26" y="570.83" opacity="0.35">0</text><text x="1056.26" y="589.83" opacity="0.29">1</text><text x="1056.26" y="608.83" opacity="0.24">0</text><text x="1056.26" y="627.83" opacity="0.18">1</text><text x="1056.26" y="646.83" opacity="0.12">1</text><text x="1056.26" y="665.83" opacity="0.06">1</text><text x="1118.93" y="359.06" opacity="1">0</text><text x="1118.93" y="378.06" opacity="0.92">1</text><text x="1118.93" y="397.06" opacity="0.83">1</text><text x="1118.93" y="416.06" opacity="0.75">1</text><text x="1118.93" y="435.06" opacity="0.67">1</text><text x="1118.93" y="454.06" opacity="0.58">0</text><text x="1118.93" y="473.06" opacity="0.5">1</text><text x="1118.93" y="492.06" opacity="0.42">1</text><text x="1118.93" y="511.06" opacity="0.33">0</text><text x="1118.93" y="530.06" opacity="0.25">0</text><text x="1118.93" y="549.06" opacity="0.17">1</text><text x="1118.93" y="568.06" opacity="0.08">0</text><text x="1182.11" y="557.25" opacity="1">1</text><text x="1182.11" y="576.25" opacity="0.94">1</text><text x="1182.11" y="595.25" opacity="0.89">1</text><text x="1182.11" y="614.25" opacity="0.83">1</text><text x="1182.11" y="633.25" opacity="0.78">1</text><text x="1182.11" y="652.25" opacity="0.72">0</text><text x="1182.11" y="671.25" opacity="0.67">1</text><text x="1182.11" y="690.25" opacity="0.61">1</text><text x="1182.11" y="709.25" opacity="0.56">1</text><text x="1182.11" y="8.25" opacity="0.5">1</text><text x="1182.11" y="27.25" opacity="0.44">0</text><text x="1182.11" y="46.25" opacity="0.39">1</text><text x="1182.11" y="65.25" opacity="0.33">1</text><text x="1182.11" y="84.25" opacity="0.28">0</text><text x="1182.11" y="103.25" opacity="0.22">0</text><text x="1182.11" y="122.25" opacity="0.17">0</text><text x="1182.11" y="141.25" opacity="0.11">0</text><text x="1182.11" y="160.25" opacity="0.06">1</text><text x="1227.16" y="714.14" opacity="1">1</text><text x="1227.16" y="13.14" opacity="0.95">0</text><text x="1227.16" y="32.14" opacity="0.89">1</text><text x="1227.16" y="51.14" opacity="0.84">0</text><text x="1227.16" y="70.14" opacity="0.79">0</text><text x="1227.16" y="89.14" opacity="0.74">0</text><text x="1227.16" y="108.14" opacity="0.68">0</text><text x="1227.16" y="127.14" opacity="0.63">1</text><text x="1227.16" y="146.14" opacity="0.58">0</text><text x="1227.16" y="165.14" opacity="0.53">1</text><text x="1227.16" y="184.14" opacity="0.47">1</text><text x="1227.16" y="203.14" opacity="0.42">0</text><text x="1227.16" y="222.14" opacity="0.37">0</text><text x="1227.16" y="241.14" opacity="0.32">0</text><text x="1227.16" y="260.14" opacity="0.26">0</text><text x="1227.16" y="279.14" opacity="0.21">1</text><text x="1227.16" y="298.14" opacity="0.16">1</text><text x="1227.16" y="317.14" opacity="0.11">1</text><text x="1227.16" y="336.14" opacity="0.05">0</text></g><circle cx="903.91" cy="148.52" r="3.51" fill="#ff3fa4" opacity="0.49"/><circle cx="903.91" cy="148.52" r="11.22" fill="none" stroke="#ff3fa4" stroke-width="0.8" opacity="0.18"/><circle cx="475.94" cy="120.46" r="2.74" fill="#ff3fa4" opacity="0.27"/><circle cx="475.94" cy="120.46" r="8.77" fill="none" stroke="#ff3fa4" stroke-width="0.8" opacity="0.18"/><circle cx="648.48" cy="484.35" r="3.35" fill="#ff3fa4" opacity="0.43"/><circle cx="1011" cy="405.48" r="3.53" fill="#ff3fa4" opacity="0.42"/><circle cx="256.61" cy="284.55" r="4.41" fill="#ff3fa4" opacity="0.24"/><circle cx="742.5" cy="95.19" r="4.17" fill="#ff3fa4" opacity="0.62"/><circle cx="742.5" cy="95.19" r="13.33" fill="none" stroke="#ff3fa4" stroke-width="0.8" opacity="0.18"/><circle cx="1217.36" cy="63.06" r="4.93" fill="#ff3fa4" opacity="0.31"/><circle cx="1278.36" cy="36.16" r="2.99" fill="#ff3fa4" opacity="0.63"/><circle cx="229.52" cy="508.52" r="2.8" fill="#ff3fa4" opacity="0.27"/><circle cx="229.52" cy="508.52" r="8.95" fill="none" stroke="#ff3fa4" stroke-width="0.8" opacity="0.18"/><circle cx="1264.9" cy="109.23" r="3.98" fill="#ff3fa4" opacity="0.42"/><circle cx="1264.9" cy="109.23" r="12.75" fill="none" stroke="#ff3fa4" stroke-width="0.8" opacity="0.18"/><circle cx="672.35" cy="8.43" r="2.96" fill="#ff3fa4" opacity="0.69"/><circle cx="360.86" cy="218.15" r="3.18" fill="#ff3fa4" opacity="0.55"/><circle cx="100.62" cy="535.07" r="1.96" fill="#ff3fa4" opacity="0.54"/><circle cx="238.64" cy="471.92" r="4.96" fill="#ff3fa4" opacity="0.64"/><circle cx="238.64" cy="471.92" r="15.86" fill="none" stroke="#ff3fa4" stroke-width="0.8" opacity="0.18"/><circle cx="910.14" cy="549.57" r="2.66" fill="#ff3fa4" opacity="0.37"/><circle cx="910.14" cy="549.57" r="8.52" fill="none" stroke="#ff3fa4" stroke-width="0.8" opacity="0.18"/><circle cx="1107.92" cy="483.45" r="3.71" fill="#ff3fa4" opacity="0.29"/><circle cx="142.74" cy="17.91" r="4.13" fill="#ff3fa4" opacity="0.56"/><circle cx="1245.18" cy="434.32" r="2.27" fill="#ff3fa4" opacity="0.41"/><circle cx="1245.18" cy="434.32" r="7.25" fill="none" stroke="#ff3fa4" stroke-width="0.8" opacity="0.18"/><circle cx="213.19" cy="278.94" r="3.07" fill="#ff3fa4" opacity="0.43"/><circle cx="1108.58" cy="528.4" r="3.65" fill="#ff3fa4" opacity="0.57"/><circle cx="1108.58" cy="528.4" r="11.68" fill="none" stroke="#ff3fa4" stroke-width="0.8" opacity="0.18"/><circle cx="354.69" cy="111.45" r="1.53" fill="#ff3fa4" opacity="0.64"/><circle cx="1135.52" cy="143.66" r="4.82" fill="#ff3fa4" opacity="0.28"/><circle cx="500.73" cy="295.6" r="2.32" fill="#ff3fa4" opacity="0.62"/><circle cx="500.73" cy="295.6" r="7.41" fill="none" stroke="#ff3fa4" stroke-width="0.8" opacity="0.18"/><circle cx="485.99" cy="195.57" r="3.42" fill="#ff3fa4" opacity="0.56"/><circle cx="759.58" cy="497.54" r="4.12" fill="#ff3fa4" opacity="0.67"/><circle cx="721.76" cy="76.45" r="3.46" fill="#ff3fa4" opacity="0.61"/><circle cx="721.76" cy="76.45" r="11.06" fill="none" stroke="#ff3fa4" stroke-width="0.8" opacity="0.18"/><circle cx="705.11" cy="443.6" r="2.01" fill="#ff3fa4" opacity="0.21"/><circle cx="1090.52" cy="233.14" r="3.49" fill="#ff3fa4" opacity="0.36"/><circle cx="450.21" cy="544.92" r="4.17" fill="#ff3fa4" opacity="0.27"/><circle cx="1256.43" cy="86.24" r="3.74" fill="#ff3fa4" opacity="0.28"/><rect x="0" y="0" width="1280" height="720" rx="0" fill="url(#vignette)" />
</svg>