<svg xmlns="http://www.w3.org/2000/svg" viewBox="0 0 1280 720" width="1280" height="720">
<defs>
<filter id="glow" x="-60%" y="-60%" width="220%" height="220%">
  <feGaussianBlur stdDeviation="1.6" result="b"/>
  <feMerge><feMergeNode in="b"/><feMergeNode in="SourceGraphic"/></feMerge>
</filter>
<filter id="glowBig" x="-80%" y="-80%" width="260%" height="260%">
  <feGaussianBlur stdDeviation="3.4" result="b"/>
  <feMerge><feMergeNode in="b"/><feMergeNode in="SourceGraphic"/></feMerge>
</filter>
<linearGradient id="sky2" x1="0" y1="0" x2="0" y2="1"><stop offset="0" stop-color="#030a14" stop-opacity="1"/><stop offset="0.5" stop-color="#062036" stop-opacity="1"/><stop offset="1" stop-color="#031018" stop-opacity="1"/></linearGradient><radialGradient id="halo2" cx="0.5" cy="0.5" r="0.5"><stop offset="0" stop-color="#9df4ff" stop-opacity="0.2"/><stop offset="1" stop-color="#9df4ff" stop-opacity="0"/></radialGradient><radialGradient id="vignette" cx="0.5" cy="0.5" r="0.5"><stop offset="0.5" stop-color="#000" stop-opacity="0"/><stop offset="1" stop-color="#000" stop-opacity="0.8"/></radialGradient>
</defs>
<rect x="0" y="0" width="1280" height="720" rx="0" fill="url(#sky2)" /><circle cx="640" cy="360" r="320" fill="url(#halo2)" /><rect x="90" y="40" width="1100" height="640" rx="24" fill="none" stroke="#9df4ff" stroke-width="3" opacity="0.37"/><rect x="158.75" y="80" width="962.5" height="560" rx="21" fill="none" stroke="#22e6ff" stroke-width="2.75" opacity="0.34"/><rect x="227.5" y="120" width="825" height="480" rx="18" fill="none" stroke="#9df4ff" stroke-width="2.5" opacity="0.31"/><rect x="296.25" y="160" width="687.5" height="400" rx="15" fill="none" stroke="#22e6ff" stroke-width="2.25" opacity="0.28"/><rect x="365" y="200" width="550" height="320" rx="12" fill="none" stroke="#9df4ff" stroke-width="2" opacity="0.25"/><rect x="433.75" y="240" width="412.5" height="240" rx="9" fill="none" stroke="#22e6ff" stroke-width="1.75" opacity="0.21"/><rect x="502.5" y="280" width="275" height="160" rx="6" fill="none" stroke="#9df4ff" stroke-width="1.5" opacity="0.18"/><rect x="571.25" y="320" width="137.5" height="80" rx="3" fill="none" stroke="#22e6ff" stroke-width="1.25" opacity="0.15"/><g opacity="0.22" font-family="'Courier New',monospace" font-size="16" fill="#9df4ff"><text x="1.85" y="49.18" opacity="1">0</text><text x="1.85" y="68.18" opacity="0.93">0</text><text x="1.85" y="87.18" opacity="0.86">0</text><text x="1.85" y="106.18" opacity="0.79">1</text><text x="1.85" y="125.18" opacity="0.71">1</text><text x="1.85" y="144.18" opacity="0.64">1</text><text x="1.85" y="163.18" opacity="0.57">0</text><text x="1.85" y="182.18" opacity="0.5">1</text><text x="1.85" y="201.18" opacity="0.43">0</text><text x="1.85" y="220.18" opacity="0.36">0</text><text x="1.85" y="239.18" opacity="0.29">1</text><text x="1.85" y="258.18" opacity="0.21">1</text><text x="1.85" y="277.18" opacity="0.14">0</text><text x="1.85" y="296.18" opacity="0.07">1</text><text x="38.75" y="325.71" opacity="1">1</text><text x="38.75" y="344.71" opacity="0.93">0</text><text x="38.75" y="363.71" opacity="0.87">1</text><text x="38.75" y="382.71" opacity="0.8">0</text><text x="38.75" y="401.71" opacity="0.73">0</text><text x="38.75" y="420.71" opacity="0.67">1</text><text x="38.75" y="439.71" opacity="0.6">0</text><text x="38.75" y="458.71" opacity="0.53">1</text><text x="38.75" y="477.71" opacity="0.47">0</text><text x="38.75" y="496.71" opacity="0.4">1</text><text x="38.75" y="515.71" opacity="0.33">1</text><text x="38.75" y="534.71" opacity="0.27">1</text><text x="38.75" y="553.71" opacity="0.2">1</text><text x="38.75" y="572.71" opacity="0.13">1</text><text x="38.75" y="591.71" opacity="0.07">1</text><text x="91.53" y="510.19" opacity="1">0</text><text x="91.53" y="529.19" opacity="0.89">1</text><text x="91.53" y="548.19" opacity="0.78">1</text><text x="91.53" y="567.19" opacity="0.67">1</text><text x="91.53" y="586.19" opacity="0.56">1</text><text x="91.53" y="605.19" opacity="0.44">1</text><text x="91.53" y="624.19" opacity="0.33">0</text><text x="91.53" y="643.19" opacity="0.22">1</text><text x="91.53" y="662.19" opacity="0.11">0</text><text x="120.83" y="577.65" opacity="1">1</text><text x="120.83" y="596.65" opacity="0.88">1</text><text x="120.83" y="615.65" opacity="0.75">1</text><text x="120.83" y="634.65" opacity="0.63">0</text><text x="120.83" y="653.65" opacity="0.5">1</text><text x="120.83" y="672.65" opacity="0.38">1</text><text x="120.83" y="691.65" opacity="0.25">1</text><text x="120.83" y="710.65" opacity="0.13">0</text><text x="156.44" y="37.9" opacity="1">0</text><text x="156.44" y="56.9" opacity="0.83">1</text><text x="156.44" y="75.9" opacity="0.67">0</text><text x="156.44" y="94.9" opacity="0.5">1</text><text x="156.44" y="113.9" opacity="0.33">1</text><text x="156.44" y="132.9" opacity="0.17">1</text><text x="191.9" y="124.55" opacity="1">1</text><text x="191.9" y="143.55" opacity="0.94">0</text><text x="191.9" y="162.55" opacity="0.88">0</text><text x="191.9" y="181.55" opacity="0.81">1</text><text x="191.9" y="200.55" opacity="0.75">1</text><text x="191.9" y="219.55" opacity="0.69">1</text><text x="191.9" y="238.55" opacity="0.63">1</text><text x="191.9" y="257.55" opacity="0.56">0</text><text x="191.9" y="276.55" opacity="0.5">0</text><text x="191.9" y="295.55" opacity="0.44">1</text><text x="191.9" y="314.55" opacity="0.38">1</text><text x="191.9" y="333.55" opacity="0.31">0</text><text x="191.9" y="352.55" opacity="0.25">0</text><text x="191.9" y="371.55" opacity="0.19">0</text><text x="191.9" y="390.55" opacity="0.13">0</text><text x="191.9" y="409.55" opacity="0.06">1</text><text x="245.78" y="16.4" opacity="1">0</text><text x="245.78" y="35.4" opacity="0.93">0</text><text x="245.78" y="54.4" opacity="0.87">1</text><text x="245.78" y="73.4" opacity="0.8">1</text><text x="245.78" y="92.4" opacity="0.73">1</text><text x="245.78" y="111.4" opacity="0.67">1</text><text x="245.78" y="130.4" opacity="0.6">1</text><text x="245.78" y="149.4" opacity="0.53">1</text><text x="245.78" y="168.4" opacity="0.47">0</text><text x="245.78" y="187.4" opacity="0.4">0</text><text x="245.78" y="206.4" opacity="0.33">1</text><text x="245.78" y="225.4" opacity="0.27">1</text><text x="245.78" y="244.4" opacity="0.2">1</text><text x="245.78" y="263.4" opacity="0.13">1</text><text x="245.78" y="282.4" opacity="0.07">1</text><text x="275.49" y="427.79" opacity="1">1</text><text x="275.49" y="446.79" opacity="0.89">0</text><text x="275.49" y="465.79" opacity="0.78">1</text><text x="275.49" y="484.79" opacity="0.67">1</text><text x="275.49" y="503.79" opacity="0.56">0</text><text x="275.49" y="522.79" opacity="0.44">0</text><text x="275.49" y="541.79" opacity="0.33">1</text><text x="275.49" y="560.79" opacity="0.22">0</text><text x="275.49" y="579.79" opacity="0.11">0</text><text x="302.44" y="193.7" opacity="1">1</text><text x="302.44" y="212.7" opacity="0.83">1</text><text x="302.44" y="231.7" opacity="0.67">0</text><text x="302.44" y="250.7" opacity="0.5">1</text><text x="302.44" y="269.7" opacity="0.33">1</text><text x="302.44" y="288.7" opacity="0.17">0</text><text x="343.56" y="384.56" opacity="1">0</text><text x="343.56" y="403.56" opacity="0.86">0</text><text x="343.56" y="422.56" opacity="0.71">1</text><text x="343.56" y="441.56" opacity="0.57">0</text><text x="343.56" y="460.56" opacity="0.43">0</text><text x="343.56" y="479.56" opacity="0.29">0</text><text x="343.56" y="498.56" opacity="0.14">1</text><text x="384.71" y="357.32" opacity="1">0</text><text x="384.71" y="376.32" opacity="0.92">1</text><text x="384.71" y="395.32" opacity="0.83">1</text><text x="384.71" y="414.32" opacity="0.75">0</text><text x="384.71" y="433.32" opacity="0.67">1</text><text x="384.71" y="452.32" opacity="0.58">1</text><text x="384.71" y="471.32" opacity="0.5">0</text><text x="384.71" y="490.32" opacity="0.42">0</text><text x="384.71" y="509.32" opacity="0.33">0</text><text x="384.71" y="528.32" opacity="0.25">0</text><text x="384.71" y="547.32" opacity="0.17">1</text><text x="384.71" y="566.32" opacity="0.08">0</text><text x="416.56" y="108.74" opacity="1">0</text><text x="416.56" y="127.74" opacity="0.94">1</text><text x="416.56" y="146.74" opacity="0.88">1</text><text x="416.56" y="165.74" opacity="0.82">1</text><text x="416.56" y="184.74" opacity="0.76">0</text><text x="416.56" y="203.74" opacity="0.71">1</text><text x="416.56" y="222.74" opacity="0.65">1</text><text x="416.56" y="241.74" opacity="0.59">1</text><text x="416.56" y="260.74" opacity="0.53">1</text><text x="416.56" y="279.74" opacity="0.47">0</text><text x="416.56" y="298.74" opacity="0.41">1</text><text x="416.56" y="317.74" opacity="0.35">0</text><text x="416.56" y="336.74" opacity="0.29">1</text><text x="416.56" y="355.74" opacity="0.24">1</text><text x="416.56" y="374.74" opacity="0.18">0</text><text x="416.56" y="393.74" opacity="0.12">1</text><text x="416.56" y="412.74" opacity="0.06">1</text><text x="465.1" y="643.22" opacity="1">0</text><text x="465.1" y="662.22" opacity="0.9">0</text><text x="465.1" y="681.22" opacity="0.8">1</text><text x="465.1" y="700.22" opacity="0.7">1</text><text x="465.1" y="719.22" opacity="0.6">1</text><text x="465.1" y="18.22" opacity="0.5">0</text><text x="465.1" y="37.22" opacity="0.4">0</text><text x="465.1" y="56.22" opacity="0.3">1</text><text x="465.1" y="75.22" opacity="0.2">0</text><text x="465.1" y="94.22" opacity="0.1">0</text><text x="493.31" y="428.18" opacity="1">1</text><text x="493.31" y="447.18" opacity="0.83">0</text><text x="493.31" y="466.18" opacity="0.67">1</text><text x="493.31" y="485.18" opacity="0.5">0</text><text x="493.31" y="504.18" opacity="0.33">0</text><text x="493.31" y="523.18" opacity="0.17">0</text><text x="544.52" y="443.18" opacity="1">0</text><text x="544.52" y="462.18" opacity="0.88">0</text><text x="544.52" y="481.18" opacity="0.75">0</text><text x="544.52" y="500.18" opacity="0.63">0</text><text x="544.52" y="519.18" opacity="0.5">1</text><text x="544.52" y="538.18" opacity="0.38">0</text><text x="544.52" y="557.18" opacity="0.25">0</text><text x="544.52" y="576.18" opacity="0.13">0</text><text x="581.24" y="331.08" opacity="1">1</text><text x="581.24" y="350.08" opacity="0.9">0</text><text x="581.24" y="369.08" opacity="0.8">1</text><text x="581.24" y="388.08" opacity="0.7">0</text><text x="581.24" y="407.08" opacity="0.6">1</text><text x="581.24" y="426.08" opacity="0.5">0</text><text x="581.24" y="445.08" opacity="0.4">1</text><text x="581.24" y="464.08" opacity="0.3">0</text><text x="581.24" y="483.08" opacity="0.2">0</text><text x="581.24" y="502.08" opacity="0.1">0</text><text x="621.48" y="269.81" opacity="1">1</text><text x="621.48" y="288.81" opacity="0.93">1</text><text x="621.48" y="307.81" opacity="0.87">0</text><text x="621.48" y="326.81" opacity="0.8">1</text><text x="621.48" y="345.81" opacity="0.73">0</text><text x="621.48" y="364.81" opacity="0.67">0</text><text x="621.48" y="383.81" opacity="0.6">0</text><text x="621.48" y="402.81" opacity="0.53">0</text><text x="621.48" y="421.81" opacity="0.47">0</text><text x="621.48" y="440.81" opacity="0.4">0</text><text x="621.48" y="459.81" opacity="0.33">0</text><text x="621.48" y="478.81" opacity="0.27">1</text><text x="621.48" y="497.81" opacity="0.2">1</text><text x="621.48" y="516.81" opacity="0.13">1</text><text x="621.48" y="535.81" opacity="0.07">0</text><text x="656.01" y="683.92" opacity="1">0</text><text x="656.01" y="702.92" opacity="0.91">1</text><text x="656.01" y="1.92" opacity="0.82">1</text><text x="656.01" y="20.92" opacity="0.73">1</text><text x="656.01" y="39.92" opacity="0.64">0</text><text x="656.01" y="58.92" opacity="0.55">0</text><text x="656.01" y="77.92" opacity="0.45">1</text><text x="656.01" y="96.92" opacity="0.36">1</text><text x="656.01" y="115.92" opacity="0.27">1</text><text x="656.01" y="134.92" opacity="0.18">0</text><text x="656.01" y="153.92" opacity="0.09">0</text><text x="687.57" y="388.72" opacity="1">0</text><text x="687.57" y="407.72" opacity="0.89">1</text><text x="687.57" y="426.72" opacity="0.78">1</text><text x="687.57" y="445.72" opacity="0.67">1</text><text x="687.57" y="464.72" opacity="0.56">1</text><text x="687.57" y="483.72" opacity="0.44">1</text><text x="687.57" y="502.72" opacity="0.33">1</text><text x="687.57" y="521.72" opacity="0.22">0</text><text x="687.57" y="540.72" opacity="0.11">1</text><text x="721.02" y="223.62" opacity="1">0</text><text x="721.02" y="242.62" opacity="0.92">1</text><text x="721.02" y="261.62" opacity="0.85">1</text><text x="721.02" y="280.62" opacity="0.77">0</text><text x="721.02" y="299.62" opacity="0.69">0</text><text x="721.02" y="318.62" opacity="0.62">1</text><text x="721.02" y="337.62" opacity="0.54">0</text><text x="721.02" y="356.62" opacity="0.46">0</text><text x="721.02" y="375.62" opacity="0.38">0</text><text x="721.02" y="394.62" opacity="0.31">0</text><text x="721.02" y="413.62" opacity="0.23">0</text><text x="721.02" y="432.62" opacity="0.15">0</text><text x="721.02" y="451.62" opacity="0.08">0</text><text x="755.74" y="698.11" opacity="1">0</text><text x="755.74" y="717.11" opacity="0.94">1</text><text x="755.74" y="16.11" opacity="0.88">1</text><text x="755.74" y="35.11" opacity="0.81">0</text><text x="755.74" y="54.11" opacity="0.75">1</text><text x="755.74" y="73.11" opacity="0.69">1</text><text x="755.74" y="92.11" opacity="0.63">0</text><text x="755.74" y="111.11" opacity="0.56">1</text><text x="755.74" y="130.11" opacity="0.5">0</text><text x="755.74" y="149.11" opacity="0.44">0</text><text x="755.74" y="168.11" opacity="0.38">0</text><text x="755.74" y="187.11" opacity="0.31">0</text><text x="755.74" y="206.11" opacity="0.25">1</text><text x="755.74" y="225.11" opacity="0.19">1</text><text x="755.74" y="244.11" opacity="0.13">1</text><text x="755.74" y="263.11" opacity="0.06">0</text><text x="808.77" y="477.25" opacity="1">1</text><text x="808.77" y="496.25" opacity="0.94">0</text><text x="808.77" y="515.25" opacity="0.88">0</text><text x="808.77" y="534.25" opacity="0.81">1</text><text x="808.77" y="553.25" opacity="0.75">0</text><text x="808.77" y="572.25" opacity="0.69">0</text><text x="808.77" y="591.25" opacity="0.63">1</text><text x="808.77" y="610.25" opacity="0.56">0</text><text x="808.77" y="629.25" opacity="0.5">0</text><text x="808.77" y="648.25" opacity="0.44">1</text><text x="808.77" y="667.25" opacity="0.38">0</text><text x="808.77" y="686.25" opacity="0.31">1</text><text x="808.77" y="705.25" opacity="0.25">0</text><text x="808.77" y="4.25" opacity="0.19">1</text><text x="808.77" y="23.25" opacity="0.13">0</text><text x="808.77" y="42.25" opacity="0.06">0</text><text x="841.69" y="234.52" opacity="1">1</text><text x="841.69" y="253.52" opacity="0.9">0</text><text x="841.69" y="272.52" opacity="0.8">0</text><text x="841.69" y="291.52" opacity="0.7">1</text><text x="841.69" y="310.52" opacity="0.6">1</text><text x="841.69" y="329.52" opacity="0.5">1</text><text x="841.69" y="348.52" opacity="0.4">0</text><text x="841.69" y="367.52" opacity="0.3">1</text><text x="841.69" y="386.52" opacity="0.2">0</text><text x="841.69" y="405.52" opacity="0.1">1</text><text x="874.39" y="277.57" opacity="1">0</text><text x="874.39" y="296.57" opacity="0.88">1</text><text x="874.39" y="315.57" opacity="0.75">1</text><text x="874.39" y="334.57" opacity="0.63">1</text><text x="874.39" y="353.57" opacity="0.5">1</text><text x="874.39" y="372.57" opacity="0.38">1</text><text x="874.39" y="391.57" opacity="0.25">0</text><text x="874.39" y="410.57" opacity="0.13">0</text><text x="917.54" y="573.58" opacity="1">0</text><text x="917.54" y="592.58" opacity="0.9">1</text><text x="917.54" y="611.58" opacity="0.8">0</text><text x="917.54" y="630.58" opacity="0.7">0</text><text x="917.54" y="649.58" opacity="0.6">0</text><text x="917.54" y="668.58" opacity="0.5">1</text><text x="917.54" y="687.58" opacity="0.4">1</text><text x="917.54" y="706.58" opacity="0.3">1</text><text x="917.54" y="5.58" opacity="0.2">0</text><text x="917.54" y="24.58" opacity="0.1">0</text><text x="949.81" y="199.29" opacity="1">0</text><text x="949.81" y="218.29" opacity="0.93">1</text><text x="949.81" y="237.29" opacity="0.86">1</text><text x="949.81" y="256.29" opacity="0.79">1</text><text x="949.81" y="275.29" opacity="0.71">0</text><text x="949.81" y="294.29" opacity="0.64">1</text><text x="949.81" y="313.29" opacity="0.57">0</text><text x="949.81" y="332.29" opacity="0.5">1</text><text x="949.81" y="351.29" opacity="0.43">1</text><text x="949.81" y="370.29" opacity="0.36">1</text><text x="949.81" y="389.29" opacity="0.29">0</text><text x="949.81" y="408.29" opacity="0.21">1</text><text x="949.81" y="427.29" opacity="0.14">0</text><text x="949.81" y="446.29" opacity="0.07">1</text><text x="995.59" y="465.59" opacity="1">0</text><text x="995.59" y="484.59" opacity="0.94">0</text><text x="995.59" y="503.59" opacity="0.89">0</text><text x="995.59" y="522.59" opacity="0.83">0</text><text x="995.59" y="541.59" opacity="0.78">0</text><text x="995.59" y="560.59" opacity="0.72">0</text><text x="995.59" y="579.59" opacity="0.67">1</text><text x="995.59" y="598.59" opacity="0.61">0</text><text x="995.59" y="617.59" opacity="0.56">1</text><text x="995.59" y="636.59" opacity="0.5">1</text><text x="995.59" y="655.59" opacity="0.44">0</text><text x="995.59" y="674.59" opacity="0.39">0</text><text x="995.59" y="693.59" opacity="0.33">0</text><text x="995.59" y="712.59" opacity="0.28">1</text><text x="995.59" y="11.59" opacity="0.22">0</text><text x="995.59" y="30.59" opacity="0.17">1</text><text x="995.59" y="49.59" opacity="0.11">0</text><text x="995.59" y="68.59" opacity="0.06">1</text><text x="1020.32" y="178.91" opacity="1">0</text><text x="1020.32" y="197.91" opacity="0.9">1</text><text x="1020.32" y="216.91" opacity="0.8">1</text><text x="1020.32" y="235.91" opacity="0.7">1</text><text x="1020.32" y="254.91" opacity="0.6">1</text><text x="1020.32" y="273.91" opacity="0.5">0</text><text x="1020.32" y="292.91" opacity="0.4">0</text><text x="1020.32" y="311.91" opacity="0.3">1</text><text x="1020.32" y="330.91" opacity="0.2">1</text><text x="1020.32" y="349.91" opacity="0.1">1</text><text x="1072.69" y="451.06" opacity="1">1</text><text x="1072.69" y="470.06" opacity="0.95">1</text><text x="1072.69" y="489.06" opacity="0.89">1</text><text x="1072.69" y="508.06" opacity="0.84">0</text><text x="1072.69" y="527.06" opacity="0.79">0</text><text x="1072.69" y="546.06" opacity="0.74">1</text><text x="1072.69" y="565.06" opacity="0.68">1</text><text x="1072.69" y="584.06" opacity="0.63">0</text><text x="1072.69" y="603.06" opacity="0.58">0</text><text x="1072.69" y="622.06" opacity="0.53">1</text><text x="1072.69" y="641.06" opacity="0.47">1</text><text x="1072.69" y="660.06" opacity="0.42">1</text><text x="1072.69" y="679.06" opacity="0.37">0</text><text x="1072.69" y="698.06" opacity="0.32">1</text><text x="1072.69" y="717.06" opacity="0.26">1</text><text x="1072.69" y="16.06" opacity="0.21">1</text><text x="1072.69" y="35.06" opacity="0.16">0</text><text x="1072.69" y="54.06" opacity="0.11">1</text><text x="1072.69" y="73.06" opacity="0.05">0</text><text x="1106.52" y="632.06" opacity="1">0</text><text x="1106.52" y="651.06" opacity="0.93">1</text><text x="1106.52" y="670.06" opacity="0.87">1</text><text x="1106.52" y="689.06" opacity="0.8">0</text><text x="1106.52" y="708.06" opacity="0.73">1</text><text x="1106.52" y="7.06" opacity="0.67">0</text><text x="1106.52" y="26.06" opacity="0.6">0</text><text x="1106.52" y="45.06" opacity="0.53">0</text><text x="1106.52" y="64.06" opacity="0.47">0</text><text x="1106.52" y="83.06" opacity="0.4">1</text><text x="1106.52" y="102.06" opacity="0.33">0</text><text x="1106.52" y="121.06" opacity="0.27">0</text><text x="1106.52" y="140.06" opacity="0.2">1</text><text x="1106.52" y="159.06" opacity="0.13">0</text><text x="1106.52" y="178.06" opacity="0.07">0</text><text x="1140.17" y="37.03" opacity="1">0</text><text x="1140.17" y="56.03" opacity="0.94">0</text><text x="1140.17" y="75.03" opacity="0.89">1</text><text x="1140.17" y="94.03" opacity="0.83">0</text><text x="1140.17" y="113.03" opacity="0.78">1</text><text x="1140.17" y="132.03" opacity="0.72">0</text><text x="1140.17" y="151.03" opacity="0.67">1</text><text x="1140.17" y="170.03" opacity="0.61">0</text><text x="1140.17" y="189.03" opacity="0.56">0</text><text x="1140.17" y="208.03" opacity="0.5">0</text><text x="1140.17" y="227.03" opacity="0.44">1</text><text x="1140.17" y="246.03" opacity="0.39">0</text><text x="1140.17" y="265.03" opacity="0.33">0</text><text x="1140.17" y="284.03" opacity="0.28">0</text><text x="1140.17" y="303.03" opacity="0.22">0</text><text x="1140.17" y="322.03" opacity="0.17">1</text><text x="1140.17" y="341.03" opacity="0.11">1</text><text x="1140.17" y="360.03" opacity="0.06">1</text><text x="1168.68" y="673.9" opacity="1">0</text><text x="1168.68" y="692.9" opacity="0.94">0</text><text x="1168.68" y="711.9" opacity="0.88">1</text><text x="1168.68" y="10.9" opacity="0.81">0</text><text x="1168.68" y="29.9" opacity="0.75">1</text><text x="1168.68" y="48.9" opacity="0.69">1</text><text x="1168.68" y="67.9" opacity="0.63">1</text><text x="1168.68" y="86.9" opacity="0.56">1</text><text x="1168.68" y="105.9" opacity="0.5">1</text><text x="1168.68" y="124.9" opacity="0.44">0</text><text x="1168.68" y="143.9" opacity="0.38">0</text><text x="1168.68" y="162.9" opacity="0.31">1</text><text x="1168.68" y="181.9" opacity="0.25">0</text><text x="1168.68" y="200.9" opacity="0.19">1</text><text x="1168.68" y="219.9" opacity="0.13">0</text><text x="1168.68" y="238.9" opacity="0.06">0</text><text x="1214.21" y="303.89" opacity="1">0</text><text x="1214.21" y="322.89" opacity="0.94">0</text><text x="1214.21" y="341.89" opacity="0.89">1</text><text x="1214.21" y="360.89" opacity="0.83">1</text><text x="1214.21" y="379.89" opacity="0.78">0</text><text x="1214.21" y="398.89" opacity="0.72">1</text><text x="1214.21" y="417.89" opacity="0.67">0</text><text x="1214.21" y="436.89" opacity="0.61">1</text><text x="1214.21" y="455.89" opacity="0.56">0</text><text x="1214.21" y="474.89" opacity="0.5">0</text><text x="1214.21" y="493.89" opacity="0.44">0</text><text x="1214.21" y="512.89" opacity="0.39">1</text><text x="1214.21" y="531.89" opacity="0.33">0</text><text x="1214.21" y="550.89" opacity="0.28">1</text><text x="1214.21" y="569.89" opacity="0.22">1</text><text x="1214.21" y="588.89" opacity="0.17">0</text><text x="1214.21" y="607.89" opacity="0.11">1</text><text x="1214.21" y="626.89" opacity="0.06">0</text><text x="1244.21" y="499.64" opacity="1">1</text><text x="1244.21" y="518.64" opacity="0.93">0</text><text x="1244.21" y="537.64" opacity="0.86">0</text><text x="1244.21" y="556.64" opacity="0.79">1</text><text x="1244.21" y="575.64" opacity="0.71">0</text><text x="1244.21" y="594.64" opacity="0.64">0</text><text x="1244.21" y="613.64" opacity="0.57">1</text><text x="1244.21" y="632.64" opacity="0.5">0</text><text x="1244.21" y="651.64" opacity="0.43">0</text><text x="1244.21" y="670.64" opacity="0.36">0</text><text x="1244.21" y="689.64" opacity="0.29">0</text><text x="1244.21" y="708.64" opacity="0.21">0</text><text x="1244.21" y="7.64" opacity="0.14">1</text><text x="1244.21" y="26.64" opacity="0.07">1</text></g><circle cx="860.49" cy="481.5" r="4.12" fill="#22e6ff" opacity="0.22"/><circle cx="442.4" cy="43.35" r="4.76" fill="#22e6ff" opacity="0.61"/><circle cx="442.4" cy="43.35" r="15.23" fill="none" stroke="#22e6ff" stroke-width="0.8" opacity="0.18"/><circle cx="410.14" cy="420.62" r="3.5" fill="#22e6ff" opacity="0.41"/><circle cx="410.14" cy="420.62" r="11.21" fill="none" stroke="#22e6ff" stroke-width="0.8" opacity="0.18"/><circle cx="60.84" cy="411.23" r="4.16" fill="#22e6ff" opacity="0.62"/><circle cx="1126.03" cy="479.92" r="4.2" fill="#22e6ff" opacity="0.6"/><circle cx="1126.03" cy="479.92" r="13.45" fill="none" stroke="#22e6ff" stroke-width="0.8" opacity="0.18"/><circle cx="838.41" cy="365.64" r="1.62" fill="#22e6ff" opacity="0.29"/><circle cx="900.09" cy="160.62" r="2.47" fill="#22e6ff" opacity="0.54"/><circle cx="900.09" cy="160.62" r="7.91" fill="none" stroke="#22e6ff" stroke-width="0.8" opacity="0.18"/><circle cx="1258.34" cy="471.49" r="4.42" fill="#22e6ff" opacity="0.64"/><circle cx="491.05" cy="215.42" r="1.74" fill="#22e6ff" opacity="0.62"/><circle cx="520.13" cy="26.11" r="3.07" fill="#22e6ff" opacity="0.64"/><circle cx="520.13" cy="26.11" r="9.83" fill="none" stroke="#22e6ff" stroke-width="0.8" opacity="0.18"/><circle cx="839" cy="470.7" r="3.38" fill="#22e6ff" opacity="0.39"/><circle cx="1224.76" cy="417.6" r="4.87" fill="#22e6ff" opacity="0.61"/><circle cx="1023.92" cy="235.04" r="4.55" fill="#22e6ff" opacity="0.6"/><circle cx="1023.92" cy="235.04" r="14.55" fill="none" stroke="#22e6ff" stroke-width="0.8" opacity="0.18"/><circle cx="604.28" cy="213.02" r="4.53" fill="#22e6ff" opacity="0.31"/><circle cx="604.28" cy="213.02" r="14.49" fill="none" stroke="#22e6ff" stroke-width="0.8" opacity="0.18"/><circle cx="486.36" cy="466.33" r="1.88" fill="#22e6ff" opacity="0.66"/><circle cx="1074.1" cy="307.12" r="4.77" fill="#22e6ff" opacity="0.44"/><circle cx="616.2" cy="190.91" r="1.92" fill="#22e6ff" opacity="0.5"/><circle cx="660.52" cy="289.13" r="3.48" fill="#22e6ff" opacity="0.29"/><circle cx="1120.07" cy="267.64" r="3.09" fill="#22e6ff" opacity="0.6"/><circle cx="1120.07" cy="267.64" r="9.88" fill="none" stroke="#22e6ff" stroke-width="0.8" opacity="0.18"/><circle cx="148.43" cy="188.43" r="2.13" fill="#22e6ff" opacity="0.66"/><circle cx="37.74" cy="191.55" r="3.64" fill="#22e6ff" opacity="0.42"/><circle cx="137.85" cy="41.57" r="3.96" fill="#22e6ff" opacity="0.44"/><circle cx="137.85" cy="41.57" r="12.67" fill="none" stroke="#22e6ff" stroke-width="0.8" opacity="0.18"/><circle cx="583.23" cy="224.03" r="4.8" fill="#22e6ff" opacity="0.51"/><circle cx="445.16" cy="537.05" r="3.9" fill="#22e6ff" opacity="0.2"/><circle cx="445.16" cy="537.05" r="12.47" fill="none" stroke="#22e6ff" stroke-width="0.8" opacity="0.18"/><circle cx="264.1" cy="482.4" r="3.23" fill="#22e6ff" opacity="0.56"/><circle cx="341.77" cy="105.88" r="3.56" fill="#22e6ff" opacity="0.23"/><circle cx="852.07" cy="355.28" r="2.28" fill="#22e6ff" opacity="0.64"/><circle cx="852.07" cy="355.28" r="7.31" fill="none" stroke="#22e6ff" stroke-width="0.8" opacity="0.18"/><circle cx="598.76" cy="8.15" r="1.59" fill="#22e6ff" opacity="0.33"/><circle cx="760.84" cy="115.14" r="4.64" fill="#22e6ff" opacity="0.69"/><circle cx="440.51" cy="278.95" r="4.94" fill="#22e6ff" opacity="0.28"/><circle cx="440.51" cy="278.95" r="15.8" fill="none" stroke="#22e6ff" stroke-width="0.8" opacity="0.18"/><circle cx="492.37" cy="347.49" r="4.06" fill="#22e6ff" opacity="0.57"/><circle cx="110.7" cy="290.91" r="1.98" fill="#22e6ff" opacity="0.44"/><circle cx="110.7" cy="290.91" r="6.34" fill="none" stroke="#22e6ff" stroke-width="0.8" opacity="0.18"/><circle cx="835.8" cy="565.98" r="1.85" fill="#22e6ff" opacity="0.57"/><circle cx="129.95" cy="21.43" r="2.19" fill="#22e6ff" opacity="0.6"/><rect x="0" y="0" width="1280" height="720" rx="0" fill="url(#vignette)" />
</svg>