<svg xmlns="http://www.w3.org/2000/svg" viewBox="0 0 64 64" width="64" height="64">
<defs>
<filter id="glow" x="-60%" y="-60%" width="220%" height="220%">
  <feGaussianBlur stdDeviation="1.6" result="b"/>
  <feMerge><feMergeNode in="b"/><feMergeNode in="SourceGraphic"/></feMerge>
</filter>
<filter id="glowBig" x="-80%" y="-80%" width="260%" height="260%">
  <feGaussianBlur stdDeviation="3.4" result="b"/>
  <feMerge><feMergeNode in="b"/><feMergeNode in="SourceGraphic"/></feMerge>
</filter>

</defs>
<ellipse cx="32" cy="59" rx="16" ry="3" fill="#000" opacity="0.35"/><path d="M20 38.5 L12 44.99373746651013 L9 50.5" fill="none" stroke="#a31560" stroke-width="2.6" stroke-linecap="round" stroke-linejoin="round"/><path d="M44 38.5 L52 40.00626253348987 L55 50.5" fill="none" stroke="#a31560" stroke-width="2.6" stroke-linecap="round" stroke-linejoin="round"/><path d="M28 38.5 L20 43.78875342955366 L17 50.5" fill="none" stroke="#a31560" stroke-width="2.6" stroke-linecap="round" stroke-linejoin="round"/><path d="M36 38.5 L44 41.21124657044634 L47 50.5" fill="none" stroke="#a31560" stroke-width="2.6" stroke-linecap="round" stroke-linejoin="round"/><path d="M36 38.5 L28 41.17540964772876 L25 50.5" fill="none" stroke="#a31560" stroke-width="2.6" stroke-linecap="round" stroke-linejoin="round"/><path d="M28 38.5 L36 43.82459035227124 L39 50.5" fill="none" stroke="#a31560" stroke-width="2.6" stroke-linecap="round" stroke-linejoin="round"/><path d="M24 16.5 Q19 6.5 14 5.5" fill="none" stroke="#a31560" stroke-width="2" stroke-linecap="round"/><circle cx="14" cy="5.5" r="2.4" fill="#22e6ff" filter="url(#glow)"/><path d="M40 16.5 Q45 6.5 50 5.5" fill="none" stroke="#a31560" stroke-width="2" stroke-linecap="round"/><circle cx="50" cy="5.5" r="2.4" fill="#22e6ff" filter="url(#glow)"/><rect x="12" y="13.5" width="40" height="34" rx="15" fill="#a31560" /><rect x="14" y="15" width="36" height="30" rx="13" fill="#ff3fa4" /><g opacity="0.4" stroke="#05070f" stroke-width="0.8" fill="none" stroke-linecap="round"><path d="M29.83 28.23 L29.83 34.4 L25.83 34.4"/><circle cx="25.83" cy="34.4" r="1" fill="#05070f" stroke="none"/><path d="M44.54 38.38 L44.54 41.5 L48.54 41.5"/><circle cx="48.54" cy="41.5" r="1" fill="#05070f" stroke="none"/><path d="M22.04 25.66 L22.04 35.53 L18.04 35.53"/><circle cx="18.04" cy="35.53" r="1" fill="#05070f" stroke="none"/><path d="M45.31 22.45 L48 22.45 L48 18.45"/><circle cx="48" cy="18.45" r="1" fill="#05070f" stroke="none"/><path d="M31.64 23.04 L31.64 32.2 L27.64 32.2"/><circle cx="27.64" cy="32.2" r="1" fill="#05070f" stroke="none"/></g><path d="M15 36.5 Q32 42.5 49 36.5" fill="none" stroke="#a31560" stroke-width="2" opacity="0.7"/><path d="M17 41.5 Q32 46.5 47 41.5" fill="none" stroke="#a31560" stroke-width="2" opacity="0.5"/><circle cx="26" cy="27.5" r="5" fill="#05070f" /><circle cx="26" cy="27.5" r="3.8" fill="#ffd23f" filter="url(#glow)"/><ellipse cx="26" cy="27.5" rx="1.4" ry="2.8" fill="#05070f" /><circle cx="38" cy="27.5" r="5" fill="#05070f" /><circle cx="38" cy="27.5" r="3.8" fill="#ffd23f" filter="url(#glow)"/><ellipse cx="38" cy="27.5" rx="1.4" ry="2.8" fill="#05070f" /><circle cx="32" cy="18.5" r="3" fill="#05070f" /><circle cx="32" cy="18.5" r="2.1" fill="#ff4d5e" filter="url(#glow)"/><path d="M25 37.5 l3 3 l3 -3 l3 3 l3 -3" fill="none" stroke="#05070f" stroke-width="1.6" stroke-linejoin="round"/>
</svg>