<svg xmlns="http://www.w3.org/2000/svg" viewBox="0 0 192 192" width="192" height="192">
<defs>
<filter id="glow" x="-60%" y="-60%" width="220%" height="220%">
  <feGaussianBlur stdDeviation="1.6" result="b"/>
  <feMerge><feMergeNode in="b"/><feMergeNode in="SourceGraphic"/></feMerge>
</filter>
<filter id="glowBig" x="-80%" y="-80%" width="260%" height="260%">
  <feGaussianBlur stdDeviation="3.4" result="b"/>
  <feMerge><feMergeNode in="b"/><feMergeNode in="SourceGraphic"/></feMerge>
</filter>
<radialGradient id="bossAura" cx="0.5" cy="0.5" r="0.5"><stop offset="0" stop-color="#22e6ff" stop-opacity="0.35"/><stop offset="0.6" stop-color="#22e6ff" stop-opacity="0.1"/><stop offset="1" stop-color="#22e6ff" stop-opacity="0"/></radialGradient>
</defs>
<ellipse cx="96" cy="178" rx="60" ry="9" fill="#000" opacity="0.4"/><path d="M62 126 Q36 142 44 172" fill="none" stroke="#0c1620" stroke-width="11" stroke-linecap="round"/><path d="M62 126 Q36 142 44 172" fill="none" stroke="#1a2b3c" stroke-width="7" stroke-linecap="round"/><circle cx="44" cy="172" r="4.5" fill="#22e6ff" filter="url(#glow)"/><path d="M48 132 Q33.78059378731055 148 41.78059378731055 178" fill="none" stroke="#0c1620" stroke-width="11" stroke-linecap="round"/><path d="M48 132 Q33.78059378731055 148 41.78059378731055 178" fill="none" stroke="#1a2b3c" stroke-width="7" stroke-linecap="round"/><circle cx="41.78" cy="178" r="4.5" fill="#22e6ff" filter="url(#glow)"/><path d="M34 138 Q20.73016397555954 154 28.73016397555954 184" fill="none" stroke="#0c1620" stroke-width="11" stroke-linecap="round"/><path d="M34 138 Q20.73016397555954 154 28.73016397555954 184" fill="none" stroke="#1a2b3c" stroke-width="7" stroke-linecap="round"/><circle cx="28.73" cy="184" r="4.5" fill="#22e6ff" filter="url(#glow)"/><path d="M130 126 Q157.97568011283815 142 149.97568011283815 172" fill="none" stroke="#0c1620" stroke-width="11" stroke-linecap="round"/><path d="M130 126 Q157.97568011283815 142 149.97568011283815 172" fill="none" stroke="#1a2b3c" stroke-width="7" stroke-linecap="round"/><circle cx="149.98" cy="172" r="4.5" fill="#22e6ff" filter="url(#glow)"/><path d="M144 132 Q159.404765065689 148 151.404765065689 178" fill="none" stroke="#0c1620" stroke-width="11" stroke-linecap="round"/><path d="M144 132 Q159.404765065689 148 151.404765065689 178" fill="none" stroke="#1a2b3c" stroke-width="7" stroke-linecap="round"/><circle cx="151.4" cy="178" r="4.5" fill="#22e6ff" filter="url(#glow)"/><path d="M158 138 Q170.57506015471606 154 162.57506015471606 184" fill="none" stroke="#0c1620" stroke-width="11" stroke-linecap="round"/><path d="M158 138 Q170.57506015471606 154 162.57506015471606 184" fill="none" stroke="#1a2b3c" stroke-width="7" stroke-linecap="round"/><circle cx="162.58" cy="184" r="4.5" fill="#22e6ff" filter="url(#glow)"/><polygon points="52,74 40,28 72,58" fill="#0c1620" /><polygon points="56,70 47,40 66,60" fill="#22e6ff" opacity="0.55"/><polygon points="140,74 152,28 120,58" fill="#0c1620" /><polygon points="136,70 145,40 126,60" fill="#22e6ff" opacity="0.55"/><rect x="30" y="56" width="132" height="108" rx="46" fill="#0c1620" /><rect x="36" y="61" width="120" height="98" rx="42" fill="#1a2b3c" /><g opacity="0.3" stroke="#22e6ff" stroke-width="0.8" fill="none" stroke-linecap="round"><path d="M113.19 70.36 L113.19 108.81 L109.19 108.81"/><circle cx="109.19" cy="108.81" r="1" fill="#22e6ff" stroke="none"/><path d="M124.98 107.42 L124.98 116.44 L120.98 116.44"/><circle cx="120.98" cy="116.44" r="1" fill="#22e6ff" stroke="none"/><path d="M147.67 86.27 L147.67 107.03 L151.67 107.03"/><circle cx="151.67" cy="107.03" r="1" fill="#22e6ff" stroke="none"/><path d="M128.38 71.33 L144.39 71.33 L144.39 75.33"/><circle cx="144.39" cy="75.33" r="1" fill="#22e6ff" stroke="none"/><path d="M92.44 70.35 L92.44 91.49 L96.44 91.49"/><circle cx="96.44" cy="91.49" r="1" fill="#22e6ff" stroke="none"/><path d="M129.8 76.02 L148 76.02 L148 80.02"/><circle cx="148" cy="80.02" r="1" fill="#22e6ff" stroke="none"/><path d="M56.55 124.07 L82.69 124.07 L82.69 128.07"/><circle cx="82.69" cy="128.07" r="1" fill="#22e6ff" stroke="none"/><path d="M139.7 124.61 L139.7 135.99 L143.7 135.99"/><circle cx="143.7" cy="135.99" r="1" fill="#22e6ff" stroke="none"/><path d="M134.42 104.44 L134.42 130.2 L138.42 130.2"/><circle cx="138.42" cy="130.2" r="1" fill="#22e6ff" stroke="none"/><path d="M96.64 94.59 L132.2 94.59 L132.2 98.59"/><circle cx="132.2" cy="98.59" r="1" fill="#22e6ff" stroke="none"/><path d="M125.11 137.49 L147.43 137.49 L147.43 141.49"/><circle cx="147.43" cy="141.49" r="1" fill="#22e6ff" stroke="none"/><path d="M79.27 84.47 L79.27 118.64 L83.27 118.64"/><circle cx="83.27" cy="118.64" r="1" fill="#22e6ff" stroke="none"/></g><path d="M40 126 Q96 144 152 126" fill="none" stroke="#0c1620" stroke-width="3.5" opacity="0.65"/><path d="M46 80 Q96 64 146 80" fill="none" stroke="#0c1620" stroke-width="3.5" opacity="0.5"/><circle cx="62" cy="74" r="8.6" fill="#05070f" /><circle cx="62" cy="74" r="7" fill="#7a89b8" filter="url(#glow)"/><circle cx="130" cy="74" r="7.6" fill="#05070f" /><circle cx="130" cy="74" r="6" fill="#7a89b8" filter="url(#glow)"/><circle cx="52" cy="100" r="8.6" fill="#05070f" /><circle cx="52" cy="100" r="7" fill="#7a89b8" filter="url(#glow)"/><circle cx="140" cy="100" r="7.6" fill="#05070f" /><circle cx="140" cy="100" r="6" fill="#7a89b8" filter="url(#glow)"/><line x1="74" y1="104" x2="90" y2="120" stroke="#7a89b8" stroke-width="4" stroke-linecap="round" /><line x1="90" y1="104" x2="74" y2="120" stroke="#7a89b8" stroke-width="4" stroke-linecap="round" /><line x1="102" y1="104" x2="118" y2="120" stroke="#7a89b8" stroke-width="4" stroke-linecap="round" /><line x1="118" y1="104" x2="102" y2="120" stroke="#7a89b8" stroke-width="4" stroke-linecap="round" /><ellipse cx="96" cy="144" rx="22" ry="13" fill="#05070f" /><ellipse cx="96" cy="145" rx="18" ry="9" fill="#2a0512" /><polygon points="80,136 86,145 92,136 98,145 104,136 110,145" fill="#eaf6ff" /><text x="96" y="52" fill="#22e6ff" font-family="'Courier New',monospace" font-size="13" font-weight="bold" text-anchor="middle" opacity="0.75" filter="url(#glow)">01001</text>
</svg>