<svg xmlns="http://www.w3.org/2000/svg" viewBox="0 0 64 64" width="64" height="64">
<defs>
<filter id="glow" x="-60%" y="-60%" width="220%" height="220%">
  <feGaussianBlur stdDeviation="1.6" result="b"/>
  <feMerge><feMergeNode in="b"/><feMergeNode in="SourceGraphic"/></feMerge>
</filter>
<filter id="glowBig" x="-80%" y="-80%" width="260%" height="260%">
  <feGaussianBlur stdDeviation="3.4" result="b"/>
  <feMerge><feMergeNode in="b"/><feMergeNode in="SourceGraphic"/></feMerge>
</filter>

</defs>
<ellipse cx="32" cy="59.5" rx="14.7" ry="3" fill="#000" opacity="0.35"/><path d="M44 46 C54 46 61 36 56 28" fill="none" stroke="#121a35" stroke-width="6" stroke-linecap="round"/><path d="M44 46 C54 46 61 36 56 28" fill="none" stroke="#1c2751" stroke-width="4" stroke-linecap="round"/><circle cx="56" cy="28" r="2.6" fill="#22e6ff" filter="url(#glow)"/><rect x="17.5" y="48.6" width="7" height="8" rx="3.2" fill="#121a35" /><rect x="39.5" y="48.6" width="7" height="8" rx="3.2" fill="#121a35" /><rect x="21" y="49.6" width="9" height="8" rx="3.4" fill="#1c2751" /><rect x="20.5" y="54.1" width="10" height="3.5" rx="1.8" fill="#121a35" /><rect x="34" y="47.6" width="9" height="8" rx="3.4" fill="#1c2751" /><rect x="33.5" y="52.1" width="10" height="3.5" rx="1.8" fill="#121a35" /><rect x="18" y="31.6" width="28" height="22" rx="10" fill="#121a35" /><rect x="19.5" y="32.6" width="25" height="20" rx="9" fill="#1c2751" /><g opacity="0.35" stroke="#22e6ff" stroke-width="0.8" fill="none" stroke-linecap="round"><path d="M37.29 34.3 L37.29 41.13 L41.29 41.13"/><circle cx="41.29" cy="41.13" r="1" fill="#22e6ff" stroke="none"/><path d="M31.55 42.36 L31.55 46.72 L35.55 46.72"/><circle cx="35.55" cy="46.72" r="1" fill="#22e6ff" stroke="none"/><path d="M24.68 35.1 L24.68 44.1 L28.68 44.1"/><circle cx="28.68" cy="44.1" r="1" fill="#22e6ff" stroke="none"/><path d="M41.11 39.43 L41.11 48.23 L45.11 48.23"/><circle cx="45.11" cy="48.23" r="1" fill="#22e6ff" stroke="none"/></g><rect x="25" y="36.6" width="14" height="12" rx="3" fill="#05070f" /><rect x="26" y="37.6" width="12" height="10" rx="2.2" fill="#0d2233" /><text x="32" y="45.2" fill="#22e6ff" font-family="'Courier New',monospace" font-size="7" font-weight="bold" text-anchor="middle" filter="url(#glow)">01</text><rect x="14" y="35.6" width="6" height="13" rx="3" fill="#1c2751" /><rect x="44" y="35.6" width="6" height="13" rx="3" fill="#1c2751" /><g transform="translate(0 0.24)" ><polygon points="18,15 20.5,1.5 31,10" fill="#121a35" /><polygon points="20,13 21.6,5 28.5,10.5" fill="#ff3fa4" opacity="0.9"/><polygon points="33,10 43.5,1.5 46,15" fill="#121a35" /><polygon points="35.5,10.5 42.4,5 44,13" fill="#ff3fa4" opacity="0.9"/><rect x="15" y="8" width="34" height="28" rx="12.5" fill="#121a35" /><rect x="16.5" y="9" width="31" height="26" rx="11.5" fill="#1c2751" /><path d="M20 16 Q32 10 44 16 L44 12 Q32 6.5 20 12 Z" fill="#121a35" opacity="0.6"/><line x1="32" y1="9.5" x2="32" y2="7.5" stroke="#22e6ff" stroke-width="1.2" stroke-linecap="round" /><circle cx="32" cy="6.5" r="1.9" fill="#22e6ff" filter="url(#glow)"/><ellipse cx="24.5" cy="22" rx="5" ry="5.6" fill="#05070f" /><ellipse cx="24.5" cy="22" rx="4.1" ry="4.7" fill="#22e6ff" filter="url(#glow)"/><ellipse cx="24.8" cy="22.4" rx="1.5" ry="3.2" fill="#05070f" /><circle cx="23" cy="20.1" r="1.3" fill="#eaf6ff" opacity="0.95"/><ellipse cx="39.5" cy="22" rx="5" ry="5.6" fill="#05070f" /><ellipse cx="39.5" cy="22" rx="4.1" ry="4.7" fill="#22e6ff" filter="url(#glow)"/><ellipse cx="39.8" cy="22.4" rx="1.5" ry="3.2" fill="#05070f" /><circle cx="38" cy="20.1" r="1.3" fill="#eaf6ff" opacity="0.95"/><ellipse cx="32" cy="29" rx="6.4" ry="4.4" fill="#121a35" opacity="0.55"/><polygon points="30.4,27 33.6,27 32,29" fill="#ff3fa4" /><path d="M29.4 30.04 Q31 32.24 32 30.439999999999998" fill="none" stroke="#05070f" stroke-width="1.3" stroke-linecap="round"/><path d="M32 30.439999999999998 Q33 32.24 34.6 30.04" fill="none" stroke="#05070f" stroke-width="1.3" stroke-linecap="round"/><line x1="21" y1="27" x2="15.5" y2="25.5" stroke="#22e6ff" stroke-width="0.9" stroke-linecap="round" opacity="0.75"/><line x1="21" y1="29.5" x2="15.5" y2="30" stroke="#22e6ff" stroke-width="0.9" stroke-linecap="round" opacity="0.75"/><line x1="43" y1="27" x2="48.5" y2="25.5" stroke="#22e6ff" stroke-width="0.9" stroke-linecap="round" opacity="0.75"/><line x1="43" y1="29.5" x2="48.5" y2="30" stroke="#22e6ff" stroke-width="0.9" stroke-linecap="round" opacity="0.75"/></g>
</svg>