<svg xmlns="http://www.w3.org/2000/svg" viewBox="0 0 64 64" width="64" height="64">
<defs>
<filter id="glow" x="-60%" y="-60%" width="220%" height="220%">
  <feGaussianBlur stdDeviation="1.6" result="b"/>
  <feMerge><feMergeNode in="b"/><feMergeNode in="SourceGraphic"/></feMerge>
</filter>
<filter id="glowBig" x="-80%" y="-80%" width="260%" height="260%">
  <feGaussianBlur stdDeviation="3.4" result="b"/>
  <feMerge><feMergeNode in="b"/><feMergeNode in="SourceGraphic"/></feMerge>
</filter>

</defs>
<ellipse cx="32" cy="59.5" rx="14" ry="3" fill="#000" opacity="0.35"/><path d="M44 46 C52.8 46.8 60.2 38.4 55.2 30.4" fill="none" stroke="#18233d" stroke-width="6" stroke-linecap="round"/><path d="M44 46 C52.8 46.8 60.2 38.4 55.2 30.4" fill="none" stroke="#243357" stroke-width="4" stroke-linecap="round"/><circle cx="55.2" cy="30.4" r="2.6" fill="#eaf6ff" filter="url(#glow)"/><rect x="17.5" y="50" width="7" height="8" rx="3.2" fill="#18233d" /><rect x="39.5" y="50" width="7" height="8" rx="3.2" fill="#18233d" /><rect x="21" y="48" width="9" height="8" rx="3.4" fill="#243357" /><rect x="20.5" y="52.5" width="10" height="3.5" rx="1.8" fill="#18233d" /><rect x="34" y="48" width="9" height="8" rx="3.4" fill="#243357" /><rect x="33.5" y="52.5" width="10" height="3.5" rx="1.8" fill="#18233d" /><rect x="18" y="33" width="28" height="22" rx="10" fill="#18233d" /><rect x="19.5" y="34" width="25" height="20" rx="9" fill="#243357" /><g opacity="0.35" stroke="#eaf6ff" stroke-width="0.8" fill="none" stroke-linecap="round"><path d="M37.29 35.7 L37.29 42.53 L41.29 42.53"/><circle cx="41.29" cy="42.53" r="1" fill="#eaf6ff" stroke="none"/><path d="M31.55 43.76 L31.55 48.12 L35.55 48.12"/><circle cx="35.55" cy="48.12" r="1" fill="#eaf6ff" stroke="none"/><path d="M24.68 36.5 L24.68 45.5 L28.68 45.5"/><circle cx="28.68" cy="45.5" r="1" fill="#eaf6ff" stroke="none"/><path d="M41.11 40.83 L41.11 49.63 L45.11 49.63"/><circle cx="45.11" cy="49.63" r="1" fill="#eaf6ff" stroke="none"/></g><rect x="25" y="38" width="14" height="12" rx="3" fill="#05070f" /><rect x="26" y="39" width="12" height="10" rx="2.2" fill="#0d2233" /><text x="32" y="46.6" fill="#eaf6ff" font-family="'Courier New',monospace" font-size="7" font-weight="bold" text-anchor="middle" filter="url(#glow)">01</text><rect x="14" y="38" width="6" height="12" rx="3" fill="#243357" transform="rotate(18 17 42)"/><rect x="44" y="38" width="6" height="12" rx="3" fill="#243357" transform="rotate(-18 47 42)"/><g transform="translate(0 0.8)" ><polygon points="18,15 20.5,1.5 31,10" fill="#18233d" /><polygon points="20,13 21.6,5 28.5,10.5" fill="#9df4ff" opacity="0.9"/><polygon points="33,10 43.5,1.5 46,15" fill="#18233d" /><polygon points="35.5,10.5 42.4,5 44,13" fill="#9df4ff" opacity="0.9"/><rect x="15" y="8" width="34" height="28" rx="12.5" fill="#18233d" /><rect x="16.5" y="9" width="31" height="26" rx="11.5" fill="#243357" /><path d="M20 16 Q32 10 44 16 L44 12 Q32 6.5 20 12 Z" fill="#18233d" opacity="0.6"/><line x1="32" y1="9.5" x2="32" y2="7.5" stroke="#eaf6ff" stroke-width="1.2" stroke-linecap="round" /><circle cx="32" cy="6.5" r="1.9" fill="#eaf6ff" filter="url(#glow)"/><ellipse cx="24.5" cy="22" rx="5.6" ry="6.2" fill="#05070f" /><ellipse cx="24.5" cy="22" rx="4.6" ry="5.2" fill="#eaf6ff" filter="url(#glow)"/><circle cx="24.5" cy="22" r="2.6" fill="#05070f" /><circle cx="22.9" cy="20" r="1.5" fill="#eaf6ff" /><ellipse cx="39.5" cy="22" rx="5.6" ry="6.2" fill="#05070f" /><ellipse cx="39.5" cy="22" rx="4.6" ry="5.2" fill="#eaf6ff" filter="url(#glow)"/><circle cx="39.5" cy="22" r="2.6" fill="#05070f" /><circle cx="37.9" cy="20" r="1.5" fill="#eaf6ff" /><ellipse cx="32" cy="29" rx="6.4" ry="4.4" fill="#18233d" opacity="0.55"/><polygon points="30.4,27 33.6,27 32,29" fill="#ff3fa4" /><path d="M29.4 30.6 Q31 32.8 32 31" fill="none" stroke="#05070f" stroke-width="1.3" stroke-linecap="round"/><path d="M32 31 Q33 32.8 34.6 30.6" fill="none" stroke="#05070f" stroke-width="1.3" stroke-linecap="round"/><line x1="21" y1="27" x2="15.5" y2="25.5" stroke="#eaf6ff" stroke-width="0.9" stroke-linecap="round" opacity="0.75"/><line x1="21" y1="29.5" x2="15.5" y2="30" stroke="#eaf6ff" stroke-width="0.9" stroke-linecap="round" opacity="0.75"/><line x1="43" y1="27" x2="48.5" y2="25.5" stroke="#eaf6ff" stroke-width="0.9" stroke-linecap="round" opacity="0.75"/><line x1="43" y1="29.5" x2="48.5" y2="30" stroke="#eaf6ff" stroke-width="0.9" stroke-linecap="round" opacity="0.75"/></g>
</svg>